<svg id="组_2987" data-name="组 2987" xmlns="http://www.w3.org/2000/svg" width="19.503" height="19.985" viewBox="0 0 19.503 19.985">
  <path id="路径_747" data-name="路径 747" d="M62.707,51.558H59.818v-1.2a.722.722,0,1,0-1.445,0v1.2H50.187v-1.2a.722.722,0,1,0-1.445,0v1.2h-3.13a1.192,1.192,0,0,0-1.2,1.2V68.413a1.192,1.192,0,0,0,1.2,1.2h17.1a1.192,1.192,0,0,0,1.2-1.2V52.762A1.192,1.192,0,0,0,62.707,51.558ZM48.742,53v1.2a.722.722,0,0,0,1.445,0V53h8.186v1.2a.722.722,0,0,0,1.445,0V53h2.649v3.371H45.853V53ZM45.853,68.172V57.818H62.466V68.172Z" transform="translate(-44.408 -49.632)" fill="#aaa"/>
  <path id="路径_748" data-name="路径 748" d="M191.488,363.1h-5.3a.722.722,0,1,0,0,1.445h5.3a.722.722,0,0,0,0-1.445Z" transform="translate(-182.446 -348.655)" fill="#aaa"/>
  <path id="路径_749" data-name="路径 749" d="M191.488,289.959h-5.3a.722.722,0,1,0,0,1.445h5.3a.722.722,0,0,0,0-1.445Z" transform="translate(-182.446 -278.883)" fill="#aaa"/>
  <path id="路径_820" data-name="路径 820" d="M62.707,51.558H59.818v-1.2a.722.722,0,1,0-1.445,0v1.2H50.187v-1.2a.722.722,0,1,0-1.445,0v1.2h-3.13a1.192,1.192,0,0,0-1.2,1.2V68.413a1.192,1.192,0,0,0,1.2,1.2h17.1a1.192,1.192,0,0,0,1.2-1.2V52.762A1.192,1.192,0,0,0,62.707,51.558ZM48.742,53v1.2a.722.722,0,0,0,1.445,0V53h8.186v1.2a.722.722,0,0,0,1.445,0V53h2.649v3.371H45.853V53ZM45.853,68.172V57.818H62.466V68.172Z" transform="translate(-44.408 -49.632)" fill="#aaa"/>
</svg>
