<svg id="组_2972" data-name="组 2972" xmlns="http://www.w3.org/2000/svg" xmlns:xlink="http://www.w3.org/1999/xlink" width="123.188" height="56.785" viewBox="0 0 123.188 56.785">
  <defs>
    <clipPath id="clip-path">
      <rect id="矩形_341" data-name="矩形 341" width="123.188" height="56.785" fill="none"/>
    </clipPath>
    <clipPath id="clip-path-2">
      <rect id="矩形_342" data-name="矩形 342" width="123.188" height="54.916" fill="none"/>
    </clipPath>
  </defs>
  <rect id="矩形_339" data-name="矩形 339" width="33.581" height="33.581" transform="translate(0.005 0.001)" fill="#312783"/>
  <path id="路径_899" data-name="路径 899" d="M195.9,354.757l-12.814,16.584h1.929l12.771-16.584Z" transform="translate(-164.198 -354.756)" fill="#e4003a"/>
  <g id="组_1358" data-name="组 1358" transform="translate(0 0)">
    <g id="组_1357" data-name="组 1357" clip-path="url(#clip-path)">
      <path id="路径_900" data-name="路径 900" d="M167.458,399.785c.585,1.638,1.79,5.9,2.271,6.238h-3.166a5.264,5.264,0,0,0-.15-1.117c-.136-.487-1.282-4.172-1.282-4.172H160.1l-.792,1.121s.95,2.973,1.009,3.119c.1.263.557,1.049.557,1.049h-3.034s-.079-.454-.109-.643c-.023-.153-.287-.989-.287-.989a9,9,0,0,0-.876,1.1c-.188.349-.273.529-.273.529h-2.374s-.079-.454-.108-.643c-.023-.153-.314-1.056-.314-1.056a12.137,12.137,0,0,0-.854,1.156c-.187.349-.268.544-.268.544H150.03s.664-.632.9-.9c.391-.46,1.848-2.364,1.848-2.364l-.584-2.022H147.2s-2.846,3.74-2.958,3.856a11.342,11.342,0,0,0-.961,1.434H141.8v-.942a.656.656,0,0,1,.059-.057c.045-.033,2.157-2.655,4.1-5.24,1.743-2.254,3.379-4.447,3.523-4.656a14.67,14.67,0,0,0,.848-1.595h2.581a11.463,11.463,0,0,0,.155,1.246c.067.215,1.639,5.374,1.676,5.429l.869-1.112-1.485-4.574a8.1,8.1,0,0,0-.461-.989h3.014a2.636,2.636,0,0,0,.1.819c.123.377.769,2.709.769,2.709s2.056-2.577,2.176-2.762a1.67,1.67,0,0,0,.253-.766h2.512a7.847,7.847,0,0,0-1.265,1.355c-.271.343-2.922,3.714-2.922,3.714s.231.789.343,1.182c.031.112.052.189.052.2s.059-.068.16-.2c.684-.867,3.8-4.949,3.986-5.3a7.825,7.825,0,0,0,.507-.952h2.45a6.276,6.276,0,0,0,.132.934Zm-3.729-3.863a33.167,33.167,0,0,1-2.478,3.352H164.6s-.65-2-.763-2.454a3.571,3.571,0,0,1-.066-.877c0-.041-.007-.107-.046-.022m-12.887,0a33.25,33.25,0,0,1-2.477,3.352h3.354s-.65-2-.763-2.454a3.562,3.562,0,0,1-.066-.877c0-.041-.008-.107-.048-.022m5.05,7.817.923-1.268c-.086-.091-.605-1.668-.605-1.668l-.893,1.158Z" transform="translate(-141.793 -375.8)" fill="#fff"/>
      <rect id="矩形_340" data-name="矩形 340" width="1.581" height="12.493" transform="translate(40.304 2.715)" fill="#312783"/>
      <path id="路径_901" data-name="路径 901" d="M239.5,367.5h1.295l.134,1.333h.057a4.362,4.362,0,0,1,3.1-1.561c1.942,0,2.818,1.257,2.818,3.618v5.866h-1.562V371.1c0-1.733-.533-2.475-1.752-2.475-.952,0-1.6.5-2.533,1.428v6.7H239.5Z" transform="translate(-194.811 -361.548)" fill="#312783"/>
      <path id="路径_902" data-name="路径 902" d="M258.321,367.773h1.619l1.752,5.256c.267.914.572,1.848.857,2.723h.076c.268-.876.572-1.809.838-2.723l1.752-5.256h1.543l-3.275,9.255h-1.829Z" transform="translate(-205.027 -361.82)" fill="#312783"/>
      <path id="路径_903" data-name="路径 903" d="M284.453,371.387c0-1.866-.837-2.875-2.285-2.875-1.3,0-2.475,1.047-2.667,2.875Zm-6.475.761c0-3.028,2.038-4.875,4.151-4.875,2.362,0,3.695,1.695,3.695,4.341a6.012,6.012,0,0,1-.057.9h-6.246a3.069,3.069,0,0,0,3.086,3.218,4.192,4.192,0,0,0,2.3-.723l.552,1.029a5.519,5.519,0,0,1-3.047.952c-2.477,0-4.438-1.809-4.438-4.837" transform="translate(-215.695 -361.548)" fill="#312783"/>
      <path id="路径_904" data-name="路径 904" d="M296.844,375.709l.781-1.047a4.162,4.162,0,0,0,2.723,1.1c1.219,0,1.828-.648,1.828-1.447,0-.952-1.1-1.371-2.114-1.752-1.315-.477-2.761-1.105-2.761-2.666,0-1.487,1.18-2.629,3.18-2.629a4.621,4.621,0,0,1,2.876,1.047l-.743.991a3.436,3.436,0,0,0-2.114-.819c-1.162,0-1.695.628-1.695,1.333,0,.876,1.01,1.2,2.058,1.6,1.333.5,2.818,1.047,2.818,2.8,0,1.5-1.2,2.761-3.389,2.761a5.571,5.571,0,0,1-3.447-1.276" transform="translate(-225.933 -361.548)" fill="#312783"/>
      <path id="路径_905" data-name="路径 905" d="M313.626,371.1v-5.122h-1.371v-1.181l1.446-.094.191-2.591h1.314V364.7H317.7v1.275h-2.495v5.141c0,1.143.362,1.79,1.428,1.79a3.356,3.356,0,0,0,1.049-.248l.3,1.182a5.718,5.718,0,0,1-1.714.343c-1.981,0-2.647-1.258-2.647-3.086" transform="translate(-234.296 -358.745)" fill="#312783"/>
      <path id="路径_906" data-name="路径 906" d="M327.7,367.5H329l.133,1.333h.057a4.068,4.068,0,0,1,2.875-1.561,2.428,2.428,0,0,1,2.552,1.771,4.37,4.37,0,0,1,3.047-1.771c1.9,0,2.818,1.257,2.818,3.618v5.866h-1.562V371.1c0-1.733-.552-2.475-1.714-2.475a3.4,3.4,0,0,0-2.324,1.428v6.7h-1.561V371.1c0-1.733-.552-2.475-1.733-2.475a3.476,3.476,0,0,0-2.324,1.428v6.7H327.7Z" transform="translate(-242.68 -361.548)" fill="#312783"/>
      <path id="路径_907" data-name="路径 907" d="M365.342,371.387c0-1.866-.838-2.875-2.285-2.875-1.295,0-2.476,1.047-2.666,2.875Zm-6.475.761c0-3.028,2.038-4.875,4.152-4.875,2.362,0,3.694,1.695,3.694,4.341a6.012,6.012,0,0,1-.057.9H360.41a3.07,3.07,0,0,0,3.086,3.218,4.191,4.191,0,0,0,2.3-.723l.552,1.029a5.518,5.518,0,0,1-3.047.952c-2.477,0-4.438-1.809-4.438-4.837" transform="translate(-259.591 -361.548)" fill="#312783"/>
      <path id="路径_908" data-name="路径 908" d="M379.3,367.5h1.295l.134,1.333h.057a4.36,4.36,0,0,1,3.1-1.561c1.942,0,2.818,1.257,2.818,3.618v5.866h-1.562V371.1c0-1.733-.533-2.475-1.751-2.475-.953,0-1.6.5-2.533,1.428v6.7H379.3Z" transform="translate(-270.678 -361.548)" fill="#312783"/>
      <path id="路径_909" data-name="路径 909" d="M399.993,371.1v-5.122h-1.371v-1.181l1.446-.094.191-2.591h1.314V364.7h2.495v1.275h-2.495v5.141c0,1.143.362,1.79,1.428,1.79a3.357,3.357,0,0,0,1.049-.248l.3,1.182a5.715,5.715,0,0,1-1.713.343c-1.981,0-2.647-1.258-2.647-3.086" transform="translate(-281.165 -358.745)" fill="#312783"/>
      <path id="路径_910" data-name="路径 910" d="M229.909,393.539h1.9l2.4,6.665c.305.857.591,1.752.9,2.609h.076c.305-.857.553-1.752.857-2.609l2.361-6.665h1.924v12.492h-1.485v-6.874c0-1.1.133-2.589.209-3.694h-.076l-.99,2.838-2.362,6.475h-1.047l-2.362-6.475-.99-2.838h-.076c.076,1.1.191,2.59.191,3.694v6.874h-1.429Z" transform="translate(-189.609 -375.802)" fill="#312783"/>
      <path id="路径_911" data-name="路径 911" d="M262.141,407.336v-2.571c-3.086.381-4.153,1.143-4.153,2.324,0,1.047.725,1.485,1.639,1.485a3.754,3.754,0,0,0,2.514-1.238m-5.675-.133c0-2.019,1.733-3.028,5.675-3.467,0-1.181-.381-2.324-1.9-2.324a5.034,5.034,0,0,0-2.761.991l-.61-1.086a6.864,6.864,0,0,1,3.637-1.2c2.267,0,3.219,1.5,3.219,3.808V409.6h-1.3l-.133-1.1h-.057a4.937,4.937,0,0,1-3.066,1.333,2.518,2.518,0,0,1-2.7-2.627" transform="translate(-204.02 -379.372)" fill="#312783"/>
      <path id="路径_912" data-name="路径 912" d="M276.569,400.346h1.295l.134,1.333h.057a4.363,4.363,0,0,1,3.1-1.562c1.943,0,2.819,1.258,2.819,3.618V409.6h-1.562v-5.657c0-1.733-.532-2.475-1.752-2.475-.952,0-1.6.5-2.533,1.428v6.7h-1.561Z" transform="translate(-214.93 -379.372)" fill="#312783"/>
      <path id="路径_913" data-name="路径 913" d="M301.638,407.336v-2.571c-3.085.381-4.152,1.143-4.152,2.324,0,1.047.724,1.485,1.639,1.485a3.753,3.753,0,0,0,2.513-1.238m-5.675-.133c0-2.019,1.733-3.028,5.675-3.467,0-1.181-.381-2.324-1.9-2.324a5.032,5.032,0,0,0-2.76.991l-.61-1.086a6.864,6.864,0,0,1,3.637-1.2c2.266,0,3.219,1.5,3.219,3.808V409.6h-1.3l-.133-1.1h-.057a4.935,4.935,0,0,1-3.066,1.333,2.518,2.518,0,0,1-2.7-2.627" transform="translate(-225.455 -379.372)" fill="#312783"/>
      <path id="路径_914" data-name="路径 914" d="M320.725,403.193a1.962,1.962,0,1,0-3.922,0,1.964,1.964,0,1,0,3.922,0m1.2,6.987c0-.8-.667-1.067-1.867-1.067h-1.6a4.814,4.814,0,0,1-1.2-.142,1.8,1.8,0,0,0-.953,1.457c0,.925,1.009,1.512,2.686,1.512,1.77,0,2.932-.853,2.932-1.76m-6.989.444a2.483,2.483,0,0,1,1.352-1.955V408.6a1.576,1.576,0,0,1-.819-1.4,2,2,0,0,1,1.01-1.6v-.071a2.991,2.991,0,0,1-1.2-2.33,3.2,3.2,0,0,1,3.485-3.075,3.925,3.925,0,0,1,1.313.213H323.3v1.12h-1.9a2.424,2.424,0,0,1,.761,1.778,3.087,3.087,0,0,1-3.389,3,3.419,3.419,0,0,1-1.39-.3,1.291,1.291,0,0,0-.591,1.032c0,.551.381.942,1.639.942h1.789c2.152,0,3.237.621,3.237,2.062,0,1.6-1.809,2.987-4.684,2.987-2.266,0-3.828-.836-3.828-2.33" transform="translate(-235.751 -379.372)" fill="#312783"/>
      <path id="路径_915" data-name="路径 915" d="M340.818,404.232c0-1.866-.838-2.875-2.285-2.875-1.295,0-2.476,1.047-2.665,2.875Zm-6.475.762c0-3.028,2.037-4.875,4.152-4.875,2.362,0,3.694,1.695,3.694,4.341a5.992,5.992,0,0,1-.057.895h-6.246a3.07,3.07,0,0,0,3.086,3.219,4.188,4.188,0,0,0,2.3-.723l.552,1.029a5.513,5.513,0,0,1-3.046.952c-2.477,0-4.438-1.809-4.438-4.837" transform="translate(-246.282 -379.373)" fill="#312783"/>
      <path id="路径_916" data-name="路径 916" d="M355.458,400.346h1.295l.134,1.675h.057a3.168,3.168,0,0,1,2.627-1.9,2.308,2.308,0,0,1,.991.19l-.305,1.372a2.608,2.608,0,0,0-.9-.152c-.781,0-1.713.571-2.342,2.133V409.6h-1.561Z" transform="translate(-257.741 -379.372)" fill="#312783"/>
    </g>
  </g>
  <g id="组_1360" data-name="组 1360" transform="translate(0 0)">
    <g id="组_1359" data-name="组 1359" clip-path="url(#clip-path-2)">
      <path id="路径_917" data-name="路径 917" d="M366.453,408.554l.781-1.048a4.158,4.158,0,0,0,2.723,1.1c1.219,0,1.828-.648,1.828-1.447,0-.953-1.1-1.371-2.113-1.752-1.314-.477-2.761-1.1-2.761-2.665,0-1.485,1.18-2.629,3.18-2.629a4.616,4.616,0,0,1,2.875,1.047l-.742.991a3.437,3.437,0,0,0-2.114-.819c-1.162,0-1.695.629-1.695,1.332,0,.877,1.009,1.2,2.057,1.6,1.334.5,2.819,1.048,2.819,2.8,0,1.5-1.2,2.761-3.389,2.761a5.573,5.573,0,0,1-3.447-1.276" transform="translate(-263.708 -379.373)" fill="#312783"/>
      <path id="路径_918" data-name="路径 918" d="M155.54,450.159v-1.136h-8.013c.432-.784.832-1.584,1.152-2.3l-1.28-.272a25.267,25.267,0,0,1-1.263,2.575h-4.351v1.136h3.679a28.17,28.17,0,0,1-1.7,2.462l-.016.016c1.327.416,2.783.96,4.222,1.535a15.055,15.055,0,0,1-5.965,2.127,4.758,4.758,0,0,1,.751,1.088,15.913,15.913,0,0,0,6.445-2.686,32.939,32.939,0,0,1,5.022,2.623l.975-1.024a35.222,35.222,0,0,0-4.99-2.495,10.078,10.078,0,0,0,2.287-3.646Zm-4.4,0a8.389,8.389,0,0,1-2.1,3.183c-1.152-.448-2.335-.88-3.439-1.232.4-.576.831-1.247,1.264-1.951Zm-7.773-4.383h10.507v2.1h1.232v-3.2h-5.677c-.24-.544-.608-1.28-.927-1.871l-1.216.288c.24.48.528,1.087.752,1.583h-5.853v3.2h1.184Z" transform="translate(-141.786 -402.536)" fill="#312783"/>
    </g>
  </g>
  <g id="组_1362" data-name="组 1362" transform="translate(0 0)">
    <g id="组_1361" data-name="组 1361" clip-path="url(#clip-path)">
      <path id="路径_919" data-name="路径 919" d="M202.46,456.028V452.19H191.937v3.838H189.97v1.087H204.3v-1.087Zm-1.168,0h-2.031v-2.863h2.031Zm-3.135,0h-2.015v-2.863h2.015Zm-5.1-2.863h2v2.863h-2Zm2.239-5.15c-.08,1.359-.16,1.9-.32,2.079-.1.112-.24.128-.448.128a14.072,14.072,0,0,1-1.424-.064,2.692,2.692,0,0,1,.272.927,14.937,14.937,0,0,0,1.663.016,1.147,1.147,0,0,0,.863-.368c.3-.32.432-1.168.528-3.247.016-.143.032-.431.032-.431h-3.934c.016-.192.016-.368.016-.544v-.88h4.973a12.781,12.781,0,0,0,1.456,3.646,13.592,13.592,0,0,1-2.591,1.519,6.772,6.772,0,0,1,.8.88,16.908,16.908,0,0,0,2.415-1.519,3.976,3.976,0,0,0,2.975,1.711c1.072,0,1.5-.528,1.7-2.5a2.981,2.981,0,0,1-.959-.528c-.08,1.392-.256,1.887-.672,1.887a2.943,2.943,0,0,1-2.143-1.328,12.391,12.391,0,0,0,2.447-3.022l-1.072-.336a10.083,10.083,0,0,1-1.983,2.479,13,13,0,0,1-1.184-2.894H204v-1.039h-2.479l.576-.384a10,10,0,0,0-1.775-1.408l-.816.512a8.675,8.675,0,0,1,1.552,1.28h-2.559a12.289,12.289,0,0,1-.208-1.743h-1.168a12.376,12.376,0,0,0,.208,1.743h-5.95v1.9a8,8,0,0,1-1.471,5.118,3.715,3.715,0,0,1,.975.735,8.289,8.289,0,0,0,1.583-4.334Z" transform="translate(-167.9 -402.536)" fill="#312783"/>
      <path id="路径_920" data-name="路径 920" d="M251.31,449.759l-.224.048h-7.149v1.12h.624l-.16.064a11.228,11.228,0,0,0,2.607,3.663,13.9,13.9,0,0,1-4.318,1.695,3.777,3.777,0,0,1,.592,1.088,14.95,14.95,0,0,0,4.686-2.015,12.59,12.59,0,0,0,4.478,2,4.264,4.264,0,0,1,.752-1.087,13.048,13.048,0,0,1-4.238-1.647,10.011,10.011,0,0,0,3.119-4.574Zm-.831,1.168a8.717,8.717,0,0,1-2.5,3.054,9.3,9.3,0,0,1-2.431-3.054Zm-6.781-.032-.16-1.088-1.487.432V447.12h1.983V446h-1.983v-3.2h-1.168V446h-2.175v1.119h2.175v3.439c-.9.256-1.711.479-2.367.639l.352,1.152,2.015-.592v4.126c0,.224-.08.3-.3.3-.192,0-.879.017-1.647-.016a5.254,5.254,0,0,1,.368,1.1,5.745,5.745,0,0,0,2.159-.224c.415-.176.592-.5.592-1.168V451.39Zm2.911-6.413h2.783v2.558c0,1.184.256,1.648,1.36,1.648h1.343a3.39,3.39,0,0,0,.863-.08,10.1,10.1,0,0,1-.1-1.024,4.241,4.241,0,0,1-.8.08H250.83c-.256,0-.3-.16-.3-.607v-3.695h-5.038v1.759a3.571,3.571,0,0,1-2.047,3.423,5.734,5.734,0,0,1,.768.88,4.614,4.614,0,0,0,2.4-4.271Z" transform="translate(-194.279 -402.536)" fill="#312783"/>
      <path id="路径_921" data-name="路径 921" d="M296.629,455.6a32.212,32.212,0,0,1,4.462,1.775l1.055-.688a41.983,41.983,0,0,0-4.7-1.727Zm-3.9-.623a19.9,19.9,0,0,1-4.686,1.535,7.568,7.568,0,0,1,.863.9,22.645,22.645,0,0,0,4.894-1.951Zm-.32-8.972c-1.663.512-3.343,1.023-4.478,1.344l.448,1.023c1.215-.384,2.719-.928,4.158-1.424Zm.176-1.6a20.551,20.551,0,0,0-3.343-1.232l-.528.816a21.357,21.357,0,0,1,3.343,1.328Zm4.158.56c-.416,1.391-2.079,2.287-4.078,2.655a3.761,3.761,0,0,1,.512.831,6.922,6.922,0,0,0,3.982-2.127,8.4,8.4,0,0,0,4.158,2.3,3.506,3.506,0,0,1,.672-.863,7.482,7.482,0,0,1-4.35-2.191,2.7,2.7,0,0,0,.192-.448Zm-6.685,9.9H300.4v-6.413H290.056Zm1.152-5.613h8.012v1.088h-8.012Zm0,1.855h8.012v1.088h-8.012Zm0,1.855h8.012v1.119h-8.012Zm9.2-8.076a6.989,6.989,0,0,1-.959,1.216l.943.352a11.412,11.412,0,0,0,1.6-2.271l-.8-.24-.192.048h-5.47c.192-.336.384-.672.544-1.007L295,442.8a6.98,6.98,0,0,1-2.415,2.879,2.968,2.968,0,0,1,.9.576,8.2,8.2,0,0,0,1.407-1.375Z" transform="translate(-221.095 -402.536)" fill="#312783"/>
      <path id="路径_922" data-name="路径 922" d="M346.219,444.162c.144-.384.272-.752.384-1.152l-1.152-.192a6.943,6.943,0,0,1-1.551,3.039,5.142,5.142,0,0,1,.975.56,7.137,7.137,0,0,0,.944-1.376h1.12a9.16,9.16,0,0,1,1.136,1.807l.959-.447a8.652,8.652,0,0,0-.88-1.36H351v-.879Zm-3.135,2.143a9.892,9.892,0,0,1,.48,1.007h-5.869v2.607h1.151v-1.664h10.572v1.664H350.6v-2.607H344.78a8.244,8.244,0,0,0-.64-1.232Zm-2.447,6.109h8.028v-3.183h-9.212v8.22h1.184v-.544h7.693v.512H349.5v-3.9h-8.86Zm6.861-.912h-6.861v-1.359H347.5Zm.832,4.478h-7.693v-1.535h7.693Zm-8.14-10.939a10.007,10.007,0,0,1,.831,1.759l1.008-.368a8.151,8.151,0,0,0-.7-1.392h2.431v-.9h-4.27a9.841,9.841,0,0,0,.4-1.151l-1.152-.192a8.761,8.761,0,0,1-1.951,3.615,9.683,9.683,0,0,1,1.007.544,8.369,8.369,0,0,0,1.3-1.919Z" transform="translate(-247.607 -402.536)" fill="#312783"/>
      <path id="路径_923" data-name="路径 923" d="M388.757,456.713v-2.191h3.726v-1.088h-3.726v-1.871h3.486v-7.116h-8.124v7.116h3.438v1.871h-3.63v1.088h3.63v2.191H382.7V457.8h10.3v-1.087Zm2.351-6.19h-2.446v-2.047h2.446Zm0-3.022h-2.446v-2.015h2.446Zm-5.9-2.015h2.43V447.5h-2.43Zm0,2.99h2.43v2.047h-2.43Zm-1.968,5.406-1.743.576v-3.95h1.615v-1.12H381.5v-3.47h1.839V444.8h-4.958v1.12h1.983v3.47h-1.823v1.12h1.823v4.3c-.815.272-1.551.5-2.143.671l.272,1.2c1.424-.464,3.247-1.088,4.958-1.664Z" transform="translate(-270.092 -403.429)" fill="#312783"/>
    </g>
  </g>
</svg>
