<svg id="组_2973" data-name="组 2973" xmlns="http://www.w3.org/2000/svg" width="215.375" height="47.492" viewBox="0 0 215.375 47.492">
  <path id="路径_860" data-name="路径 860" d="M288.789,149.315l1.832-.271a1.3,1.3,0,0,0,.46.852,1.4,1.4,0,0,0,.972.306,1.731,1.731,0,0,0,1.07-.277.637.637,0,0,0,.092-.912,1.148,1.148,0,0,0-.581-.247,8.945,8.945,0,0,1-2.777-.976,1.95,1.95,0,0,1-.792-1.678,2.133,2.133,0,0,1,.671-1.648,3.042,3.042,0,0,1,2.165-.668,3.573,3.573,0,0,1,2.1.519,2.581,2.581,0,0,1,.915,1.464l-1.677.365a1.178,1.178,0,0,0-.43-.671,1.242,1.242,0,0,0-.853-.243,1.845,1.845,0,0,0-1.037.211.525.525,0,0,0-.213.4.444.444,0,0,0,.181.366,6.623,6.623,0,0,0,1.681.55,4.736,4.736,0,0,1,2.011.881,1.917,1.917,0,0,1,.581,1.5,2.385,2.385,0,0,1-.793,1.77,3.253,3.253,0,0,1-2.32.73,3.678,3.678,0,0,1-2.2-.609A2.962,2.962,0,0,1,288.789,149.315Z" transform="translate(-81.09 -127.982)" fill="#005192"/>
  <g id="组_1355" data-name="组 1355" transform="translate(0 0)">
    <path id="路径_861" data-name="路径 861" d="M162.291,133.31c4.608.087,8.511,3.2,10.25,7.744l-2.868.581c-1.191-3.325-3.721-5.58-7.2-5.58-4.941,0-7.961,4.635-7.961,10.339,0,5.674,3.142,10.342,7.961,10.342a6.93,6.93,0,0,0,4.514-1.555l.58,2.958a10.125,10.125,0,0,1-5.277,1.494c-6.895,0-11.257-5.916-11.257-13.206C151.034,139.163,156.005,133.153,162.291,133.31Z" transform="translate(-151.034 -133.307)" fill="#575554" fill-rule="evenodd" opacity="0.995"/>
    <path id="路径_862" data-name="路径 862" d="M179.707,148.634l1.83.639a4.625,4.625,0,0,1-1.4,2.533,4.195,4.195,0,0,1-5.582-.609,5.8,5.8,0,0,1-1.193-3.843,5.968,5.968,0,0,1,1.221-4.03,3.967,3.967,0,0,1,3.172-1.431,3.783,3.783,0,0,1,2.807,1.128,4.237,4.237,0,0,1,.947,1.925l-1.862.482a2.184,2.184,0,0,0-.7-1.277,1.928,1.928,0,0,0-1.279-.457,2.111,2.111,0,0,0-1.711.822,4.393,4.393,0,0,0-.639,2.684,4.78,4.78,0,0,0,.639,2.809,2.019,2.019,0,0,0,1.681.819,1.753,1.753,0,0,0,1.282-.547A2.984,2.984,0,0,0,179.707,148.634Z" transform="translate(-139.698 -128.948)" fill="#005192"/>
    <path id="路径_863" data-name="路径 863" d="M182.574,143.795h.09a4.372,4.372,0,0,1,1.8.3,2.014,2.014,0,0,1,.853.828,4.666,4.666,0,0,1,.214,1.769v2.317a9.036,9.036,0,0,0,.089,1.461,3.894,3.894,0,0,0,.308,1.01h-1.772a3.776,3.776,0,0,1-.181-.614,1.2,1.2,0,0,1-.06-.214,3.059,3.059,0,0,1-.977.736,2.272,2.272,0,0,1-.365.154v-1.313a1.829,1.829,0,0,0,.7-.336,1.227,1.227,0,0,0,.43-.672,3.547,3.547,0,0,0,.06-.944v-.4c-.216.062-.58.185-1.1.306h-.09v-1.251a5.475,5.475,0,0,0,1.19-.365v-.182a1.019,1.019,0,0,0-.246-.825,1.475,1.475,0,0,0-.944-.246Zm-1.223,2.47-1.615-.336a2.835,2.835,0,0,1,.947-1.615,3.267,3.267,0,0,1,1.891-.519v1.523h-.032a1.078,1.078,0,0,0-.731.219,1.357,1.357,0,0,0-.46.728Zm1.223,5.28a3.394,3.394,0,0,1-.763.087,2.24,2.24,0,0,1-1.649-.609,2.133,2.133,0,0,1-.608-1.616,2.38,2.38,0,0,1,.273-1.128,1.843,1.843,0,0,1,.763-.763,6.524,6.524,0,0,1,1.432-.457,3.678,3.678,0,0,0,.552-.124v1.251a2.589,2.589,0,0,0-.884.336.911.911,0,0,0-.339.7.963.963,0,0,0,.277.7.9.9,0,0,0,.733.308h.213Z" transform="translate(-136.553 -127.982)" fill="#005192"/>
    <path id="路径_864" data-name="路径 864" d="M187.966,143.854a3.008,3.008,0,0,1,.519-.059,2.5,2.5,0,0,1,2.014,1.039,4.356,4.356,0,0,1,.825,2.835,4.482,4.482,0,0,1-.853,2.931,2.46,2.46,0,0,1-2.014,1.033,2.817,2.817,0,0,1-.49-.029v-1.523h.06a1.232,1.232,0,0,0,1.037-.583,3.029,3.029,0,0,0,.428-1.8,2.825,2.825,0,0,0-.46-1.77A1.269,1.269,0,0,0,188,145.38h-.032Zm-3.293.127h1.675v1.1a2.363,2.363,0,0,1,.887-.918,2.034,2.034,0,0,1,.731-.306v1.526a1.292,1.292,0,0,0-1.067.549,2.57,2.57,0,0,0-.457,1.678,3.105,3.105,0,0,0,.457,1.862,1.512,1.512,0,0,0,1.067.612V151.6a2.445,2.445,0,0,1-.517-.213,3.41,3.41,0,0,1-.98-.856v3.786h-1.8Z" transform="translate(-133.954 -127.982)" fill="#005192"/>
    <path id="路径_865" data-name="路径 865" d="M190.033,143.845v-1.829h1.8v1.829Zm0,8.541v-7.5h1.8v7.5Z" transform="translate(-131.232 -128.885)" fill="#005192"/>
    <path id="路径_866" data-name="路径 866" d="M195.8,144.814V146.4h-1.217v3.022a7.048,7.048,0,0,0,.032,1.066.6.6,0,0,0,.149.244.59.59,0,0,0,.3.09,2.1,2.1,0,0,0,.731-.182l.154,1.555a3.321,3.321,0,0,1-1.4.274,1.974,1.974,0,0,1-.885-.182,1.287,1.287,0,0,1-.579-.457,1.725,1.725,0,0,1-.246-.761,7.981,7.981,0,0,1-.059-1.405V146.4h-.826v-1.583h.826v-1.5l1.8-1.164v2.66Z" transform="translate(-130.257 -128.815)" fill="#005192"/>
    <path id="路径_867" data-name="路径 867" d="M198.05,143.795h.121a4.212,4.212,0,0,1,1.773.3,2.018,2.018,0,0,1,.852.828,4.448,4.448,0,0,1,.246,1.769l-.033,2.317a8.763,8.763,0,0,0,.093,1.461,5.543,5.543,0,0,0,.3,1.01H199.64c-.06-.157-.1-.336-.185-.614-.032-.09-.032-.182-.06-.214a3.049,3.049,0,0,1-.974.736,2.5,2.5,0,0,1-.369.154v-1.313a1.664,1.664,0,0,0,.7-.336,1.23,1.23,0,0,0,.427-.672,3.158,3.158,0,0,0,.094-.944v-.4c-.244.062-.612.185-1.1.306h-.121v-1.251a6.535,6.535,0,0,0,1.223-.365v-.182a1.031,1.031,0,0,0-.276-.825,1.426,1.426,0,0,0-.947-.246Zm-1.188,2.47-1.648-.336a2.84,2.84,0,0,1,.944-1.615,3.276,3.276,0,0,1,1.892-.519v1.523h-.029a1.077,1.077,0,0,0-.733.219,1.165,1.165,0,0,0-.427.728Zm1.188,5.28a3.156,3.156,0,0,1-.761.087,2.231,2.231,0,0,1-1.648-.609,2.129,2.129,0,0,1-.609-1.616,2.363,2.363,0,0,1,.274-1.128,1.822,1.822,0,0,1,.761-.763,6.542,6.542,0,0,1,1.434-.457,3.6,3.6,0,0,0,.549-.124v1.251a2.958,2.958,0,0,0-.885.336.911.911,0,0,0-.335.7.962.962,0,0,0,.276.7.9.9,0,0,0,.733.308h.211Z" transform="translate(-128.694 -127.982)" fill="#005192"/>
    <rect id="矩形_337" data-name="矩形 337" width="1.801" height="10.37" transform="translate(74.117 13.13)" fill="#005192"/>
    <path id="路径_868" data-name="路径 868" d="M208.652,148.634v-1.74h4.088v4.119a5.233,5.233,0,0,1-1.74,1.131,6.115,6.115,0,0,1-2.287.454,4.728,4.728,0,0,1-2.563-.671,4.176,4.176,0,0,1-1.646-1.949,6.962,6.962,0,0,1-.549-2.747,6.319,6.319,0,0,1,.611-2.893,4.341,4.341,0,0,1,1.8-1.924,4.577,4.577,0,0,1,2.256-.52,4.091,4.091,0,0,1,2.715.822,3.579,3.579,0,0,1,1.282,2.231l-1.894.4a2.168,2.168,0,0,0-.763-1.22,2.121,2.121,0,0,0-1.34-.427,2.418,2.418,0,0,0-1.984.853,3.975,3.975,0,0,0-.731,2.593,4.426,4.426,0,0,0,.731,2.774,2.409,2.409,0,0,0,1.954.912,2.817,2.817,0,0,0,1.188-.273,3.419,3.419,0,0,0,1.039-.611v-1.31Z" transform="translate(-124.164 -128.948)" fill="#005192"/>
    <path id="路径_869" data-name="路径 869" d="M213.632,143.795h.121a4.478,4.478,0,0,1,1.8.3,1.782,1.782,0,0,1,.823.828,4.526,4.526,0,0,1,.247,1.769l-.036,2.317a8.9,8.9,0,0,0,.1,1.461,5.58,5.58,0,0,0,.333,1.01h-1.8c-.032-.157-.092-.336-.154-.614a.765.765,0,0,0-.09-.214,2.7,2.7,0,0,1-.976.736,2.284,2.284,0,0,1-.366.154v-1.313a1.646,1.646,0,0,0,.7-.336,1.3,1.3,0,0,0,.457-.672,5.91,5.91,0,0,0,.059-.944v-.4c-.243.062-.609.185-1.1.306h-.121v-1.251a5.818,5.818,0,0,0,1.218-.365v-.182a1.021,1.021,0,0,0-.276-.825,1.4,1.4,0,0,0-.942-.246Zm-1.193,2.47-1.645-.336a3.016,3.016,0,0,1,.945-1.615,3.279,3.279,0,0,1,1.892-.519v1.523h0a1.113,1.113,0,0,0-.763.219,1.18,1.18,0,0,0-.43.728Zm1.193,5.28a3.178,3.178,0,0,1-.763.087,2.1,2.1,0,0,1-2.259-2.225,2.348,2.348,0,0,1,.277-1.128,1.886,1.886,0,0,1,.789-.763,5.606,5.606,0,0,1,1.437-.457,2.592,2.592,0,0,0,.519-.124v1.251a2.387,2.387,0,0,0-.853.336.851.851,0,0,0-.365.7.97.97,0,0,0,.271.7.945.945,0,0,0,.734.308h.213Z" transform="translate(-120.785 -127.982)" fill="#005192"/>
    <path id="路径_870" data-name="路径 870" d="M218.977,144.814V146.4h-1.25v3.022a5.611,5.611,0,0,0,.06,1.066.313.313,0,0,0,.152.244.507.507,0,0,0,.3.09,2.5,2.5,0,0,0,.734-.182l.152,1.555a3.566,3.566,0,0,1-1.434.274,2.071,2.071,0,0,1-.885-.182,1.479,1.479,0,0,1-.579-.457,2.226,2.226,0,0,1-.246-.761,12.984,12.984,0,0,1-.059-1.405V146.4H215.1v-1.583h.825v-1.5l1.8-1.164v2.66Z" transform="translate(-118.504 -128.815)" fill="#005192"/>
    <path id="路径_871" data-name="路径 871" d="M222.923,149.071l1.8.336a3.138,3.138,0,0,1-1.1,1.678,2.976,2.976,0,0,1-1.832.547h-.089V150.17h.121a.939.939,0,0,0,.671-.274,1.48,1.48,0,0,0,.425-.825Zm-1.217-5.276a2.971,2.971,0,0,1,2.286,1.095,5.351,5.351,0,0,1,.823,3.389h-3.109v-1.19h1.342a1.99,1.99,0,0,0-.427-1.312,1.121,1.121,0,0,0-.885-.46h-.03Zm0,7.837a2.813,2.813,0,0,1-2.535-1.28,4.465,4.465,0,0,1-.671-2.563,4.3,4.3,0,0,1,.883-2.925,2.8,2.8,0,0,1,2.225-1.069h.1v1.523a1.188,1.188,0,0,0-.948.46,1.98,1.98,0,0,0-.4,1.312h1.343v1.19h-1.374a2,2,0,0,0,.457,1.372,1.284,1.284,0,0,0,.917.519Z" transform="translate(-116.778 -127.982)" fill="#005192"/>
    <path id="路径_872" data-name="路径 872" d="M225.421,151.42l-2.165-7.5H225l1.278,4.908,1.191-4.908H229.2l1.131,4.908,1.281-4.908h1.8l-2.2,7.5h-1.74l-1.157-4.85-1.159,4.85Z" transform="translate(-114.363 -127.919)" fill="#005192"/>
    <path id="路径_873" data-name="路径 873" d="M233.66,143.795h.122a4.375,4.375,0,0,1,1.8.3,1.778,1.778,0,0,1,.822.828,4.533,4.533,0,0,1,.246,1.769l-.032,2.317a8.8,8.8,0,0,0,.092,1.461,5.477,5.477,0,0,0,.335,1.01h-1.769a3.754,3.754,0,0,1-.182-.614,1.206,1.206,0,0,1-.06-.214,2.847,2.847,0,0,1-1.007.736,2.3,2.3,0,0,1-.368.154v-1.313a1.961,1.961,0,0,0,.734-.336,1.211,1.211,0,0,0,.425-.672,5.5,5.5,0,0,0,.06-.944v-.4c-.214.062-.579.185-1.1.306h-.122v-1.251a5.271,5.271,0,0,0,1.22-.365v-.182a1.154,1.154,0,0,0-.243-.825,1.519,1.519,0,0,0-.977-.246Zm-1.188,2.47-1.619-.336a2.845,2.845,0,0,1,.948-1.615,3.161,3.161,0,0,1,1.859-.519v1.523h0a1.109,1.109,0,0,0-.761.219,1.5,1.5,0,0,0-.427.728Zm1.188,5.28a3.119,3.119,0,0,1-.733.087,2.36,2.36,0,0,1-1.678-.609,2.247,2.247,0,0,1-.608-1.616,2.379,2.379,0,0,1,.273-1.128,2.1,2.1,0,0,1,.793-.763,5.989,5.989,0,0,1,1.434-.457,2.568,2.568,0,0,0,.519-.124v1.251a2.655,2.655,0,0,0-.853.336.856.856,0,0,0-.366.7,1,1,0,0,0,.3.7.886.886,0,0,0,.7.308h.213Z" transform="translate(-110.613 -127.982)" fill="#005192"/>
    <path id="路径_874" data-name="路径 874" d="M235.417,143.918h1.919l1.618,5.3,1.586-5.3H242.4l-2.382,7.2-.428,1.31a8.228,8.228,0,0,1-.455,1,2.335,2.335,0,0,1-.49.583,2.981,2.981,0,0,1-.7.333,4.117,4.117,0,0,1-.915.124,5.619,5.619,0,0,1-1.01-.124l-.182-1.555a3.863,3.863,0,0,0,.763.09,1.114,1.114,0,0,0,.944-.427,3.619,3.619,0,0,0,.461-1.036Z" transform="translate(-108.189 -127.919)" fill="#005192"/>
    <rect id="矩形_338" data-name="矩形 338" width="1.923" height="10.37" transform="translate(138.969 13.13)" fill="#005192"/>
    <path id="路径_875" data-name="路径 875" d="M251.876,151.483h-1.83v-3.846a7.6,7.6,0,0,0-.092-1.556,1.3,1.3,0,0,0-.394-.576.96.96,0,0,0-.614-.187,1.343,1.343,0,0,0-1.342,1.037,7.081,7.081,0,0,0-.151,1.711v3.417h-1.8v-7.5h1.675v1.1a2.627,2.627,0,0,1,2.23-1.283,2.663,2.663,0,0,1,1.1.241,1.913,1.913,0,0,1,.76.615,2.34,2.34,0,0,1,.338.82,7.025,7.025,0,0,1,.121,1.343Z" transform="translate(-102.991 -127.982)" fill="#005192"/>
    <path id="路径_876" data-name="路径 876" d="M253.155,151.421l-2.746-7.5H252.3l1.283,3.809.366,1.282c.086-.306.148-.547.181-.639.063-.216.122-.427.182-.642l1.313-3.809h1.859l-2.715,7.5Z" transform="translate(-100.577 -127.919)" fill="#005192"/>
    <path id="路径_877" data-name="路径 877" d="M259.941,149.071l1.8.336a3.516,3.516,0,0,1-1.1,1.678,3.053,3.053,0,0,1-1.859.547h-.092V150.17h.092a1.031,1.031,0,0,0,.731-.274,1.51,1.51,0,0,0,.428-.825Zm-1.251-5.276a2.872,2.872,0,0,1,2.287,1.095,5.162,5.162,0,0,1,.853,3.389H258.69v-1.19h1.342a1.824,1.824,0,0,0-.4-1.312,1.142,1.142,0,0,0-.945-.46h0Zm0,7.837a2.818,2.818,0,0,1-2.533-1.28,4.478,4.478,0,0,1-.671-2.563,4.279,4.279,0,0,1,.888-2.925,2.749,2.749,0,0,1,2.227-1.069h.089v1.523a1.151,1.151,0,0,0-.948.46,1.988,1.988,0,0,0-.392,1.312h1.34v1.19h-1.374a2.012,2.012,0,0,0,.425,1.372,1.426,1.426,0,0,0,.948.519Z" transform="translate(-97.999 -127.982)" fill="#005192"/>
    <path id="路径_878" data-name="路径 878" d="M260.242,149.315l1.829-.271a1.328,1.328,0,0,0,.458.852,1.4,1.4,0,0,0,.975.306,1.72,1.72,0,0,0,1.069-.277.63.63,0,0,0,.092-.912,1.161,1.161,0,0,0-.581-.247,8.962,8.962,0,0,1-2.777-.976,1.948,1.948,0,0,1-.79-1.678,2.141,2.141,0,0,1,.668-1.648,3.048,3.048,0,0,1,2.167-.668,3.578,3.578,0,0,1,2.106.519,2.6,2.6,0,0,1,.917,1.464l-1.678.365a1.2,1.2,0,0,0-.428-.671,1.253,1.253,0,0,0-.852-.243,1.847,1.847,0,0,0-1.04.211.53.53,0,0,0-.213.4.443.443,0,0,0,.184.366,6.418,6.418,0,0,0,1.675.55,4.743,4.743,0,0,1,2.013.881,1.907,1.907,0,0,1,.581,1.5,2.391,2.391,0,0,1-.793,1.77,3.244,3.244,0,0,1-2.319.73,3.679,3.679,0,0,1-2.2-.609A2.951,2.951,0,0,1,260.242,149.315Z" transform="translate(-95.584 -127.982)" fill="#005192"/>
    <path id="路径_879" data-name="路径 879" d="M268.891,144.814V146.4H267.67v3.022a7.377,7.377,0,0,0,.03,1.066.311.311,0,0,0,.154.244.5.5,0,0,0,.306.09,2.527,2.527,0,0,0,.731-.182l.151,1.555a3.567,3.567,0,0,1-1.431.274,2.078,2.078,0,0,1-.887-.182,1.468,1.468,0,0,1-.579-.457,2.261,2.261,0,0,1-.246-.761,12.6,12.6,0,0,1-.059-1.405V146.4h-.823v-1.583h.823v-1.5l1.829-1.164v2.66Z" transform="translate(-93.159 -128.815)" fill="#005192"/>
    <path id="路径_880" data-name="路径 880" d="M268.313,143.98h1.681v1a2.593,2.593,0,0,1,2.1-1.19,2.068,2.068,0,0,1,1.159.3,2.273,2.273,0,0,1,.792.887A2.852,2.852,0,0,1,275,144.1a2.177,2.177,0,0,1,1.129-.3,2.3,2.3,0,0,1,1.25.336,1.963,1.963,0,0,1,.795.977,4.9,4.9,0,0,1,.181,1.553v4.822h-1.8v-4.3a3.5,3.5,0,0,0-.182-1.434.882.882,0,0,0-.792-.428,1.244,1.244,0,0,0-.7.246,1.5,1.5,0,0,0-.487.763,5.984,5.984,0,0,0-.151,1.555v3.6h-1.8v-4.121a6.074,6.074,0,0,0-.094-1.4.8.8,0,0,0-.3-.489.9.9,0,0,0-.549-.154,1.247,1.247,0,0,0-.731.246,1.351,1.351,0,0,0-.49.7,6.2,6.2,0,0,0-.152,1.554v3.664h-1.8Z" transform="translate(-91.486 -127.982)" fill="#005192"/>
    <path id="路径_881" data-name="路径 881" d="M280.285,149.071l1.8.336a3.531,3.531,0,0,1-1.1,1.678,3.07,3.07,0,0,1-1.861.547h-.092V150.17h.092a.947.947,0,0,0,.7-.274,1.334,1.334,0,0,0,.458-.825Zm-1.25-5.276a2.879,2.879,0,0,1,2.287,1.095,5.326,5.326,0,0,1,.852,3.389h-3.139v-1.19h1.343a1.982,1.982,0,0,0-.4-1.312,1.182,1.182,0,0,0-.945-.46h0Zm0,7.837a2.867,2.867,0,0,1-2.563-1.28,4.685,4.685,0,0,1-.671-2.563,4.454,4.454,0,0,1,.884-2.925,2.857,2.857,0,0,1,2.26-1.069h.09v1.523a1.239,1.239,0,0,0-.977.46,2.145,2.145,0,0,0-.365,1.312h1.342v1.19h-1.372a2,2,0,0,0,.425,1.372,1.407,1.407,0,0,0,.947.519Z" transform="translate(-87.684 -127.982)" fill="#005192"/>
    <path id="路径_882" data-name="路径 882" d="M287.193,151.483h-1.8v-3.846a5.662,5.662,0,0,0-.121-1.556,1.285,1.285,0,0,0-.368-.576,1.1,1.1,0,0,0-.641-.187,1.347,1.347,0,0,0-.825.277,1.493,1.493,0,0,0-.519.76,7.354,7.354,0,0,0-.122,1.711v3.417H281v-7.5h1.645v1.1A2.628,2.628,0,0,1,286,144.036a1.884,1.884,0,0,1,.733.615,2.025,2.025,0,0,1,.366.82,7.39,7.39,0,0,1,.09,1.343Z" transform="translate(-85.044 -127.982)" fill="#005192"/>
    <path id="路径_883" data-name="路径 883" d="M289.692,144.814V146.4h-1.221v3.022a7.038,7.038,0,0,0,.032,1.066.4.4,0,0,0,.151.244.507.507,0,0,0,.306.09,2.149,2.149,0,0,0,.733-.182l.151,1.555a3.474,3.474,0,0,1-1.435.274,1.9,1.9,0,0,1-.85-.182,1.26,1.26,0,0,1-.58-.457,2.176,2.176,0,0,1-.277-.761c-.029-.246-.029-.7-.029-1.405V146.4h-.853v-1.583h.853v-1.5l1.8-1.164v2.66Z" transform="translate(-82.599 -128.815)" fill="#005192"/>
    <path id="路径_884" data-name="路径 884" d="M158.231,141.768h10.858v12.175h-1.737l-1.16-3.266v-6.1h-7.96Z" transform="translate(-147.38 -129.011)" fill="#005192" fill-rule="evenodd"/>
    <g id="组_1354" data-name="组 1354" transform="translate(0.19 33.059)">
      <path id="路径_885" data-name="路径 885" d="M157.477,155.273l1.533.193c.3.042.451.142.451.3,0,.2-.222.378-.662.526v.663h4.754l.9-.722,1.114.8a.38.38,0,0,1,.21.36c0,.109-.1.195-.3.256l-.421.118a12.316,12.316,0,0,1-1.624,1.131l-.36-.121a8.369,8.369,0,0,0,.617-1.384H152.963a3.812,3.812,0,0,1-.419,1.579c-.229.35-.472.526-.722.526-.44,0-.662-.2-.662-.6a.724.724,0,0,1,.228-.5,7.491,7.491,0,0,0,.558-.663,7.609,7.609,0,0,0,.719-1.564l.36.062c0,.259,0,.5-.014.722h4.526v-.722Q157.538,155.993,157.477,155.273Zm-4.813,8,1.324.663h8.421l.722-.722.9.736c.16.11.24.207.24.286a.25.25,0,0,1-.163.241l-.378.179V167.6l.06,1.322a.385.385,0,0,1-.2.33.684.684,0,0,1-.464.152c-.4,0-.6-.1-.6-.3v-.523h-8.54v.344a.39.39,0,0,1-.256.392,1.2,1.2,0,0,1-.586.149c-.259,0-.4-.137-.422-.421l.062-1.5v-3.251A2.783,2.783,0,0,0,152.665,163.27Zm.481-4.811a11.055,11.055,0,0,0,1.986.182h5.654l.841-.948,1.143.813a.453.453,0,0,1,.178.321c0,.167-.077.25-.237.25h-7.579a11.9,11.9,0,0,0-1.683.121Zm.843,1.16,1.263.6h5.833l.663-.66.9.689c.16.092.238.176.238.256a.277.277,0,0,1-.164.241l-.375.195v.6l.06,1.325a.306.306,0,0,1-.2.267.708.708,0,0,1-.464.136c-.365,0-.544-.1-.544-.3v-.3h-5.953v.136a.334.334,0,0,1-.255.329,1.279,1.279,0,0,1-.59.136.327.327,0,0,1-.36-.359l.06-1.428v-.917A2.321,2.321,0,0,0,153.989,159.618Zm0,6.373H157.6v-1.622h-3.608Zm0,2.15H157.6V166.4h-3.608Zm1.263-5.879H161.2v-1.64h-5.953Zm3.487,2.106v1.622h3.789v-1.622Zm0,3.772h3.789V166.4h-3.789Z" transform="translate(-151.16 -155.213)" fill="#1a1311"/>
      <path id="路径_886" data-name="路径 886" d="M163.993,157.872v1.853h2.6l.648-.543,1.007.728a.345.345,0,0,1,.137.247.238.238,0,0,1-.166.226l-.317.136a9.814,9.814,0,0,1-.226,1.864,2,2,0,0,1-.541,1.081,1.856,1.856,0,0,1-1.217.362c-.11-.489-.282-.757-.513-.795l-1.113-.213.06-.436a9.946,9.946,0,0,0,1.565.241.587.587,0,0,0,.5-.2,1.327,1.327,0,0,0,.225-.737,14.194,14.194,0,0,0,.121-1.533h-2.765a7.149,7.149,0,0,1-.692,3.276,5.994,5.994,0,0,1-1.717,2.032l-.238-.256a5.371,5.371,0,0,0,.991-1.681,10.337,10.337,0,0,0,.452-3.492V157.86a8.6,8.6,0,0,0-.06-1.144l1.173.721h4.9c-.131-.639-.249-1.363-.359-2.164l1.368.134c.288.03.437.13.437.3,0,.08-.184.194-.543.348.069.472.16.93.27,1.381h3.34l.9-1.007,1.188.856a.479.479,0,0,1,.2.354.211.211,0,0,1-.243.232h-5.264c.1.383.222.763.363,1.143a8.244,8.244,0,0,0,1.079,2.014,6.039,6.039,0,0,0,.407-.568,18.527,18.527,0,0,0,.888-1.867l1.428.618a.375.375,0,0,1,.2.359c0,.142-.2.235-.6.286a15.626,15.626,0,0,1-1.429,1.867c-.048.047-.1.1-.149.146a3.907,3.907,0,0,0,.962.74,2.3,2.3,0,0,0,1.277.553c.122,0,.226-.115.318-.345l.645-1.817.3.059-.347,2.044a.762.762,0,0,0,.184.482.5.5,0,0,1,.163.359c0,.28-.259.422-.781.422a4.728,4.728,0,0,1-2.512-.84,8.84,8.84,0,0,1-1.081-.89c-.14.112-.277.21-.407.3a9.841,9.841,0,0,1-1.82.963,17.032,17.032,0,0,1-2.12.707l-.179-.362a16.56,16.56,0,0,0,2.2-1.022,8.368,8.368,0,0,0,1.669-1.279c-.142-.182-.277-.365-.4-.556a11.429,11.429,0,0,1-1.131-2.406c-.1-.341-.2-.709-.314-1.113Zm-.6,6.361,1.324.662h7.7l.6-.707,1.007.752a.416.416,0,0,1,.2.317c0,.1-.068.175-.2.225l-.406.195v3.006h.122l.84-.96,1.144.843a.407.407,0,0,1,.179.306.218.218,0,0,1-.24.25H163.388a10.738,10.738,0,0,0-1.683.133l-.3-.748a11.3,11.3,0,0,0,1.983.176h.122v-3.426A4.037,4.037,0,0,0,163.388,164.234Zm1.324,4.449h1.746v-3.352h-1.746Zm2.889,0h1.864v-3.352H167.6Zm3,0h1.806v-3.352h-1.806Zm.6-13.353a4.011,4.011,0,0,1,1.473.59.9.9,0,0,1,.451.734c0,.323-.2.483-.6.483a.554.554,0,0,1-.467-.286,5.754,5.754,0,0,0-1.1-1.277Z" transform="translate(-145.989 -155.213)" fill="#1a1311"/>
      <path id="路径_887" data-name="路径 887" d="M171.568,158.117a10.075,10.075,0,0,0,1.986.2h1.322l.841-.918,1.083.783a.445.445,0,0,1,.181.3.211.211,0,0,1-.24.238h-3.187a11.961,11.961,0,0,0-1.686.121Zm.362-1.922a10.29,10.29,0,0,0,1.984.194h.6l.781-.856,1.036.736a.41.41,0,0,1,.169.285.214.214,0,0,1-.241.243h-2.346a11.618,11.618,0,0,0-1.669.121Zm0,4.044a11.905,11.905,0,0,0,1.984.167h.6l.781-.828,1.036.737a.364.364,0,0,1,.169.267c0,.173-.081.259-.241.259h-2.346a13.366,13.366,0,0,0-1.669.1Zm0,2.031a11.176,11.176,0,0,0,1.984.181h.721l.781-.843,1.04.754a.373.373,0,0,1,.164.277.216.216,0,0,1-.238.247h-2.468a11.206,11.206,0,0,0-1.669.121Zm.121,1.879,1.2.6h1.986l.6-.6.8.645c.149.092.226.175.226.24a.206.206,0,0,1-.151.2l-.329.179V167.5l.057,1.2a.313.313,0,0,1-.179.285.569.569,0,0,1-.422.151c-.36,0-.541-.1-.541-.315v-.541h-2.045v.6a.34.34,0,0,1-.21.348,1.068,1.068,0,0,1-.514.134c-.229,0-.347-.121-.359-.362V165.1A2.345,2.345,0,0,0,172.05,164.148Zm1.2,3.729H175.3v-2.72h-2.045Zm4.151-12.044a11.025,11.025,0,0,0,1.983.182h.482l.722-.663,1.052.722a.376.376,0,0,1,.225.315c0,.121-.084.2-.256.241l-.3.074a8.417,8.417,0,0,0,.9.992,5.352,5.352,0,0,0,.525-.872,11.142,11.142,0,0,0,.5-1.1l1.111.751a.442.442,0,0,1,.211.318c0,.128-.241.194-.721.194A9.894,9.894,0,0,1,182.559,158a6.9,6.9,0,0,0,.859.707,5.466,5.466,0,0,0,.629-.615,5.324,5.324,0,0,0,.692-.93l1.07.736c.128.1.195.195.195.285,0,.131-.243.195-.724.195a12.508,12.508,0,0,1-1.368.648.739.739,0,0,0,.148.089,9.155,9.155,0,0,0,2.244.933l-.122.421a2.458,2.458,0,0,0-.51.045c-.142.05-.33.314-.573.8a8.543,8.543,0,0,1-1.743-1.282,8.364,8.364,0,0,1-1.686-1.953,8.573,8.573,0,0,1-.659-.977,7.1,7.1,0,0,1-.8,1.336,12.16,12.16,0,0,1-1.55,1.747,13.818,13.818,0,0,1-2.1,1.607l-.24-.344a15.479,15.479,0,0,0,1.76-1.686c.181-.22.35-.442.511-.662a.821.821,0,0,1-.286.047c-.179,0-.33-.133-.451-.392a4.489,4.489,0,0,0-.932-1.354l.3-.238a10.148,10.148,0,0,1,1.265.751.878.878,0,0,1,.422.63v.136c.14-.222.276-.445.406-.678a8.122,8.122,0,0,0,.647-1.545h-.573a14.314,14.314,0,0,0-1.681.1Zm5.051,9.8,1.369.6c.172.059.255.139.255.238,0,.163-.217.262-.659.3-.356.47-.805,1.01-1.355,1.622h1.729l.888-1.022,1.187.871a.465.465,0,0,1,.2.354.211.211,0,0,1-.243.232h-6.916a12,12,0,0,0-1.687.121l-.3-.736a11.01,11.01,0,0,0,1.984.179h2.6c.213-.51.371-.924.482-1.232A15.74,15.74,0,0,0,182.454,165.636Zm-4.689-4.029,1.262.615h3.91l.66-.662.9.677c.158.1.24.191.24.271a.274.274,0,0,1-.164.244l-.377.182v.844l.059,1.331a.367.367,0,0,1-.2.3.772.772,0,0,1-.464.118c-.36,0-.541-.1-.541-.3v-.241h-4.029v.121a.34.34,0,0,1-.256.345,1.284,1.284,0,0,1-.585.136.328.328,0,0,1-.362-.36l.06-1.452v-1.206A2.491,2.491,0,0,0,177.765,161.608Zm1.141,4.27a13.531,13.531,0,0,1,1.128.843,1.059,1.059,0,0,1,.377.721.585.585,0,0,1-.663.66c-.149,0-.271-.142-.362-.433a5.389,5.389,0,0,0-.78-1.55Zm-.182-5.533a11.072,11.072,0,0,0,1.987.182h.36l.8-.841,1.022.748a.378.378,0,0,1,.166.279c0,.166-.08.25-.24.25h-2.1a11.684,11.684,0,0,0-1.684.121Zm.3,4.211h4.029V162.63h-4.029Z" transform="translate(-140.798 -155.173)" fill="#1a1311"/>
      <path id="路径_888" data-name="路径 888" d="M192.2,155.273l1.383.377c.249.069.375.161.375.285,0,.158-.226.3-.675.433q-.828.8-2,1.79h1.4l.84-.9,1.084.779a.445.445,0,0,1,.182.324c0,.157-.081.234-.243.234H189.9a14.091,14.091,0,0,0,1.714,2.017l.015.011h2.329l.887-1,1.19.855a.473.473,0,0,1,.2.341.215.215,0,0,1-.241.247h-3.941a9.3,9.3,0,0,0,1.49,1.173,12.252,12.252,0,0,0,2.693,1.248l-.122.4a2.2,2.2,0,0,0-.495.048c-.152.05-.345.321-.588.81a11.535,11.535,0,0,1-2.164-1.609,10.332,10.332,0,0,1-1.835-2.073h-3.9a11.261,11.261,0,0,1-1.307,1.449c-.222.219-.437.421-.647.614a11.5,11.5,0,0,0,1.851.146h4.149l.662-.659,1.125.894a.32.32,0,0,1,.136.262c0,.08-.2.207-.6.377a10.9,10.9,0,0,1-.211,1.956,9.141,9.141,0,0,1-.541,2.1,1.349,1.349,0,0,1-.558.754,3.746,3.746,0,0,1-1.217.3c-.069-.571-.217-.9-.437-.976l-1.187-.344.06-.377,1.743.179a.573.573,0,0,0,.392-.136.805.805,0,0,0,.271-.421,8.875,8.875,0,0,0,.36-1.7q.122-.963.164-1.776h-2.616a6.825,6.825,0,0,1-.587,1.971,4.969,4.969,0,0,1-.917,1.475,5.848,5.848,0,0,1-1.459,1.158,10.554,10.554,0,0,1-2.648,1.051l-.118-.3a12.78,12.78,0,0,0,2-.992,6.3,6.3,0,0,0,1.294-1.187,6.088,6.088,0,0,0,.813-1.443,6.626,6.626,0,0,0,.449-1.732h-.523a12.165,12.165,0,0,0-1.686.121l-.255-.615c-.372.309-.752.6-1.144.875-.51.348-1.048.683-1.609,1.007l-.241-.244a10.555,10.555,0,0,0,1.684-1.334,15.94,15.94,0,0,0,1.76-1.867c.163-.2.308-.4.437-.587h-1.956a12.172,12.172,0,0,0-1.684.118l-.3-.733a11.071,11.071,0,0,0,1.986.176h2.241a9.319,9.319,0,0,0,.722-1.387c.09-.2.176-.412.255-.641h-2.2a11.9,11.9,0,0,0-1.683.121l-.3-.737a10.876,10.876,0,0,0,1.984.179h2.346a26.964,26.964,0,0,0,.844-2.884l1.547.391c.22.089.332.2.332.33,0,.161-.226.306-.682.436-.228.633-.457,1.211-.689,1.728h1.971A8.686,8.686,0,0,0,192.2,155.273Zm-8,.3a11.672,11.672,0,0,1,1.473,1.007,1.191,1.191,0,0,1,.511.856c0,.482-.22.721-.662.721-.118,0-.231-.115-.33-.344a10.151,10.151,0,0,0-1.292-1.984Zm6.556,5.049a12.271,12.271,0,0,1-1.247-2.028h-.962a13.915,13.915,0,0,1-.783,1.481,4.385,4.385,0,0,1-.347.547Z" transform="translate(-135.486 -155.213)" fill="#1a1311"/>
      <path id="路径_889" data-name="路径 889" d="M192.135,158.293a11.766,11.766,0,0,0,1.986.166h.3v-1.143a12.957,12.957,0,0,0-.118-2.043l1.533.208c.262.021.391.115.391.286a.311.311,0,0,1-.253.329l-.348.139v2.224h.421l.844-.9,1.08.8a.405.405,0,0,1,.182.293c0,.167-.081.25-.238.25h-2.289v2.827q.9-.407,1.8-.828l.06.282q-.873.708-1.865,1.4v5.354a1.408,1.408,0,0,1-.721,1.23,2.3,2.3,0,0,1-1.144.377,1.882,1.882,0,0,0-.119-.826c-.08-.139-.481-.308-1.2-.5v-.362l1.564.2c.279,0,.418-.124.418-.377v-4.3c-.336.22-.68.433-1.021.632l-.149.528c-.02.139-.09.207-.213.207s-.205-.092-.255-.283l-.583-1.475q1.129-.357,2.221-.766V158.9h-.3a10.715,10.715,0,0,0-1.684.133Zm5.172,3.97a11.9,11.9,0,0,0,1.986.166h4.089l.722-.722,1.245.813a.338.338,0,0,1,.2.286c0,.121-.258.276-.778.464a17.841,17.841,0,0,1-1.443,2.332,8.325,8.325,0,0,1-.752.795,10.965,10.965,0,0,0,1.262.571,16.741,16.741,0,0,0,2.857.754l-.06.36a1.209,1.209,0,0,0-.722.182c-.22.078-.422.338-.6.78a14.479,14.479,0,0,1-2.42-.977,11.864,11.864,0,0,1-1.294-.855,10.125,10.125,0,0,1-2.031,1.1,17.035,17.035,0,0,1-3.218,1.036l-.178-.3a16.88,16.88,0,0,0,3.576-1.592,9.562,9.562,0,0,0,1.158-.872,8.1,8.1,0,0,1-1.426-1.986,7.421,7.421,0,0,1-.573-1.728c-.431.017-.864.053-1.291.106Zm1.746-6.69,1.1.6h2.331l.541-.659.96.677a.39.39,0,0,1,.182.309.243.243,0,0,1-.164.229l-.375.241v2.663c0,.151.093.225.283.225h.92a.937.937,0,0,0,.36-.045,6.211,6.211,0,0,0,.659-1.758l.377.059V159.5a.555.555,0,0,0,.273.481.484.484,0,0,1,.134.377c0,.17-.121.3-.36.39a4.294,4.294,0,0,1-1.128.151h-1.535a1.232,1.232,0,0,1-.873-.285,1.444,1.444,0,0,1-.255-.979v-3.025h-2.225v.663a4.813,4.813,0,0,1-.6,2.6,5.263,5.263,0,0,1-1.686,1.791l-.3-.3a4.393,4.393,0,0,0,1.14-1.446,7.111,7.111,0,0,0,.422-2.643A5.427,5.427,0,0,0,199.053,155.573Zm.27,7.294a6.013,6.013,0,0,0,.615,1.23,8.567,8.567,0,0,0,1.565,1.625c.05.041.105.077.164.118a4.406,4.406,0,0,0,.678-.93,16.225,16.225,0,0,0,1.126-2.043Z" transform="translate(-130.355 -155.213)" fill="#1a1311"/>
      <path id="路径_890" data-name="路径 890" d="M202.478,156.674a10.919,10.919,0,0,0,1.986.182h.721l.843-.9,1.081.781a.425.425,0,0,1,.182.323c0,.157-.081.234-.243.234h-2.584a11.961,11.961,0,0,0-1.686.121Zm4.208,2.408.063.3a32.169,32.169,0,0,1-3.008,1.579l-.149.513a.2.2,0,0,1-.211.195c-.112,0-.191-.089-.241-.271l-.541-1.413A38.561,38.561,0,0,0,206.686,159.082Zm1.084,7.819,1.129.721a.422.422,0,0,1,.2.315c0,.13-.243.207-.724.225a17.1,17.1,0,0,1-2.661.859c-.54.151-1.4.327-2.571.525l-.164-.286q1.592-.57,2.584-1.036A18,18,0,0,0,207.77,166.9Zm-2.871-5.775,1.309.659h7.1l.724-.721.9.739c.161.109.241.2.241.285a.25.25,0,0,1-.166.241l-.375.181v2.706l.059,1.321a.369.369,0,0,1-.21.333.638.638,0,0,1-.449.151c-.4,0-.6-.095-.6-.286v-.2h-7.216v.063a.387.387,0,0,1-.256.387,1.131,1.131,0,0,1-.587.154.382.382,0,0,1-.421-.407l.059-1.518v-3.055A3.146,3.146,0,0,0,204.9,161.127Zm1.309,2.1h7.216v-1.007h-7.216Zm0,1.443h7.216v-1.007h-7.216Zm0,1.458h7.216v-1.019h-7.216Zm4.872-8.614,1.294.344c.261.063.392.166.392.315,0,.113-.089.193-.258.243l-.348.059a.032.032,0,0,1-.012.029,5.973,5.973,0,0,0,.856.648,6.356,6.356,0,0,0,.948.466,7.456,7.456,0,0,0,1.4.329c.621.074,1.2.124,1.746.154l-.062.421a.984.984,0,0,0-.495.118c-.131.033-.288.292-.469.784a7.493,7.493,0,0,1-1.639-.466,4.96,4.96,0,0,1-1.068-.541,4.563,4.563,0,0,1-.887-.8,7.707,7.707,0,0,1-.571-.752,3.609,3.609,0,0,1-.677.811,4.726,4.726,0,0,1-1.1.739,7.346,7.346,0,0,1-1.383.556c-.571.161-1.238.309-2,.451l-.181-.238a10.6,10.6,0,0,0,1.835-.663,4.079,4.079,0,0,0,1.1-.633,5.544,5.544,0,0,0,.9-.93A5.077,5.077,0,0,0,211.08,157.519Zm-1.924-2.286,1.414.3c.258.05.389.152.389.315,0,.112-.087.173-.255.193l-.529.151c-.167.231-.339.451-.511.663h5.264l.783-.722,1.067.8a.382.382,0,0,1,.2.36c0,.109-.1.191-.3.241l-.422.136a13.861,13.861,0,0,1-1.5,1.128l-.36-.121a8.129,8.129,0,0,0,.617-1.384H209.29c-.122.13-.241.262-.36.391a16.974,16.974,0,0,1-1.521,1.235l-.24-.3a10.786,10.786,0,0,0,1.188-1.7A7.777,7.777,0,0,0,209.156,155.233Zm2.225,11.789a22.4,22.4,0,0,1,3.561.78q1.248.439,1.248.963c0,.442-.241.662-.721.662a1.234,1.234,0,0,1-.617-.27,24.159,24.159,0,0,0-3.715-1.82Z" transform="translate(-125.104 -155.233)" fill="#1a1311"/>
      <path id="路径_891" data-name="路径 891" d="M218.9,156.594c-.633.113-1.365.2-2.2.271q-.719.075-2.014.136v.918h4.166l.526-.482.873.587a.3.3,0,0,1,.151.27c0,.092-.06.163-.179.213l-.3.136v.918c.039.377.059.618.059.719a.261.261,0,0,1-.164.256.755.755,0,0,1-.5.149c-.321,0-.484-.062-.484-.179v-.226h-4.149v.226c0,.852-.029,1.637-.09,2.363.051-.113.095-.222.136-.333a15.643,15.643,0,0,0,.617-1.968l1.22.418a.313.313,0,0,1,.223.3c0,.109-.178.195-.538.253-.152.3-.308.577-.464.828h1.47a8.317,8.317,0,0,0,.375-1.624l1.1.315c.19.05.285.127.285.228s-.182.214-.541.312c-.231.232-.508.488-.828.769h1.069l.66-.722.917.662q.167.12.167.24c0,.17-.06.256-.181.256h-2.106v1.321h.3l.662-.662.826.6a.322.322,0,0,1,.136.225c0,.161-.06.244-.179.244h-1.746v1.455h.422l.662-.66.828.587a.376.376,0,0,1,.136.241c0,.16-.062.238-.182.238h-1.865v1.52h.481l.722-.795.994.689a.42.42,0,0,1,.151.271c0,.161-.06.241-.181.241h-4.33v.541a.41.41,0,0,1-.256.374,1.146,1.146,0,0,1-.467.106c-.229,0-.35-.1-.359-.3l.06-1.384v-4.146c-.152.169-.332.354-.541.553a12.881,12.881,0,0,1-.3,1.476,9.829,9.829,0,0,1-1.324,3.037l-.24-.256a13.126,13.126,0,0,0,.66-2.571,34.106,34.106,0,0,0,.3-5.248v-3.474a4.671,4.671,0,0,0-.118-1.158l1.2.751a15.923,15.923,0,0,0,1.657-.389,7.086,7.086,0,0,0,2.013-.9l1.129.828c.09.042.136.151.136.333,0,.109-.042.163-.124.163Zm-4.213,3.249h4.149v-1.488h-4.149Zm2.527,4.284v-1.321h-1.2v1.321Zm0,1.865v-1.455h-1.2v1.455Zm-1.2,1.925h1.2V166.4h-1.2Zm6.556-1.156,1.126.736a.361.361,0,0,1,.2.285c0,.154-.24.24-.722.259a10.468,10.468,0,0,1-1.865.884,15.846,15.846,0,0,1-1.8.541l-.181-.285a16.238,16.238,0,0,0,1.76-1.066A13.021,13.021,0,0,0,222.566,166.761Zm-2.345-10.7a11.292,11.292,0,0,0,1.984.179h2.886l.844-.962,1.141.823a.481.481,0,0,1,.179.339.209.209,0,0,1-.238.235h-2.752a14.827,14.827,0,0,1-1.2,2.088h2.316l.556-.659.96.677a.391.391,0,0,1,.181.285.32.32,0,0,1-.164.238l-.377.259v6.9a.425.425,0,0,1-.256.392,1.268,1.268,0,0,1-.467.089c-.279,0-.421-.1-.421-.283V166.4h-3.306v.363c0,.137-.1.241-.288.3a2.383,2.383,0,0,1-.556.062.319.319,0,0,1-.36-.362l.06-2.406v-5.233a3.337,3.337,0,0,0-.118-.963l1.262.6h.5l.377-2.088h-.752a11.688,11.688,0,0,0-1.684.121Zm1.864,5.051h3.306V159.2h-3.306Zm0,2.358h3.306v-1.922h-3.306Zm0,2.527h3.306v-2.118h-3.306Zm2.525.89a7.72,7.72,0,0,1,2.044.81,1.241,1.241,0,0,1,.721.992.584.584,0,0,1-.659.662c-.09,0-.2-.09-.317-.267a14.264,14.264,0,0,0-1.969-1.9Z" transform="translate(-119.973 -155.213)" fill="#1a1311"/>
      <path id="路径_892" data-name="路径 892" d="M223.4,155.492l1.324.662h2.889l.66-.662.9.692c.163.112.243.2.243.27a.252.252,0,0,1-.164.241l-.377.184v2.411l.06,1.328a.353.353,0,0,1-.2.3.779.779,0,0,1-.466.121c-.362,0-.544-.1-.544-.3v-.3h-3v8.6a.356.356,0,0,1-.285.344,1.933,1.933,0,0,1-.556.077.372.372,0,0,1-.421-.421l.06-2.527v-10A3.607,3.607,0,0,0,223.4,155.492Zm1.324,2.464h3v-1.366h-3Zm0,2.048h3v-1.612h-3Zm2.046,2.058,1.2.59H231.7l.6-.59.811.648c.139.09.21.17.21.241a.205.205,0,0,1-.151.2l-.33.179v2l.075,1.19a.319.319,0,0,1-.195.286.628.628,0,0,1-.421.134c-.362,0-.544-.1-.544-.285v-.495h-3.787v.359a.338.338,0,0,1-.226.345.95.95,0,0,1-.495.136.319.319,0,0,1-.36-.345v-3.637A2.331,2.331,0,0,0,226.773,162.061Zm1.2,3.655h3.787v-2.633h-3.787Zm2.706-10.165,1.264.6h3.187l.6-.721,1.007.764a.423.423,0,0,1,.2.315c0,.095-.068.163-.2.216l-.407.226v10.82a1.394,1.394,0,0,1-.8,1.248,2.649,2.649,0,0,1-1.248.377,1.223,1.223,0,0,0-.164-.751,5.233,5.233,0,0,0-1.7-.451v-.344l2.106.056c.4,0,.6-.124.6-.374v-7.1h-3.187v.179a.344.344,0,0,1-.256.345,1.294,1.294,0,0,1-.587.134.326.326,0,0,1-.362-.359l.06-1.449v-2.777A2.448,2.448,0,0,0,230.682,155.551Zm1.264,2.4h3.187v-1.366h-3.187Zm0,2.048h3.187v-1.612h-3.187Z" transform="translate(-114.479 -155.131)" fill="#1a1311"/>
      <path id="路径_893" data-name="路径 893" d="M234.172,155.392l1.175.721h2l.615-.721,1.024.767a.415.415,0,0,1,.179.315c0,.089-.059.16-.179.21l-.424.213v10.524a1.491,1.491,0,0,1-.707,1.264,2.148,2.148,0,0,1-1.1.359,1.454,1.454,0,0,0-.137-.751,3.6,3.6,0,0,0-1.426-.436v-.374l1.8.059c.241,0,.36-.115.36-.344v-3.325h-2.073a12.188,12.188,0,0,1-.452,2.346,10.054,10.054,0,0,1-1.441,3.127l-.243-.226a13.218,13.218,0,0,0,.751-2.676,33.04,33.04,0,0,0,.335-5.46v-4.451A9.089,9.089,0,0,0,234.172,155.392Zm1.156,8.077h2.029v-3.445h-1.924v.96C235.434,161.887,235.4,162.712,235.328,163.469Zm.106-3.852h1.924v-3.068h-1.924Zm3.609,2.813a11.038,11.038,0,0,0,1.986.179h3.849l.721-.722,1.248.825c.128.083.2.167.2.259,0,.13-.261.294-.783.5a17.271,17.271,0,0,1-1.37,2.238,10.972,10.972,0,0,1-.825.89c.321.148.666.3,1.037.433a15.839,15.839,0,0,0,2.722.754l-.062.36a1.354,1.354,0,0,0-.719.167c-.232.089-.431.359-.6.81a14.037,14.037,0,0,1-2.274-.977,12.69,12.69,0,0,1-1.1-.737,8.591,8.591,0,0,1-1.76.92,15.168,15.168,0,0,1-3.053,1.021l-.178-.3a15.809,15.809,0,0,0,3.367-1.545,11.285,11.285,0,0,0,.933-.692c-.02-.021-.041-.041-.06-.062a8.115,8.115,0,0,1-1.383-1.984,8.234,8.234,0,0,1-.541-1.714c-.353.02-.7.056-1.054.106Zm1.5-6.918,1.113.662h2.118l.615-.721,1.024.767a.438.438,0,0,1,.181.324q0,.142-.181.213l-.419.229v2.81c0,.161.086.241.27.241h.858a1.082,1.082,0,0,0,.375-.045,6.764,6.764,0,0,0,.8-2l.344.059-.179,1.625a.546.546,0,0,0,.315.481.431.431,0,0,1,.166.359.468.468,0,0,1-.36.451,4.064,4.064,0,0,1-1.111.149h-1.491a1.351,1.351,0,0,1-.93-.282,1.583,1.583,0,0,1-.256-1.039V156.61H241.75v.722a5.066,5.066,0,0,1-.6,2.673,5.641,5.641,0,0,1-1.743,1.835l-.36-.283a4.114,4.114,0,0,0,1.175-1.5,7.1,7.1,0,0,0,.449-2.723A9.214,9.214,0,0,0,240.548,155.513Zm.255,7.533a6.552,6.552,0,0,0,.585,1.2,7.981,7.981,0,0,0,1.5,1.6,2.78,2.78,0,0,0,.285.228,5.349,5.349,0,0,0,.737-1.025,14.967,14.967,0,0,0,1.067-2H240.8Z" transform="translate(-109.531 -155.152)" fill="#1a1311"/>
      <path id="路径_894" data-name="路径 894" d="M246.439,155.311l1.518.528a.386.386,0,0,1,.288.377c0,.142-.222.241-.662.3a29.729,29.729,0,0,1-1.325,2.827l.469.2c.169.068.253.142.253.225,0,.1-.075.176-.223.226l-.256.133v8.843a.445.445,0,0,1-.318.451,1.491,1.491,0,0,1-.525.089.384.384,0,0,1-.424-.422q0-.446.062-1.622v-6.569a20.085,20.085,0,0,1-1.444,1.758l-.36-.179a20.937,20.937,0,0,0,1.671-3.249A30.757,30.757,0,0,0,246.439,155.311Zm2.046,6.271a11.922,11.922,0,0,0,1.986.164h4.268l.663-.659,1.128.887a.334.334,0,0,1,.134.27c0,.071-.2.185-.6.348a14.411,14.411,0,0,1-.27,2.571,11.849,11.849,0,0,1-.645,2.809,1.733,1.733,0,0,1-.663,1,3.756,3.756,0,0,1-1.488.359c-.081-.559-.256-.881-.526-.959l-1.4-.345.06-.38,2.044.182a.883.883,0,0,0,.571-.182,1.025,1.025,0,0,0,.377-.585,11.922,11.922,0,0,0,.54-2.375c.121-.9.2-1.737.241-2.5H251.9a11.943,11.943,0,0,1-.511,2.556,8,8,0,0,1-.766,1.865,6.07,6.07,0,0,1-1.232,1.443,7.474,7.474,0,0,1-2.225,1.339l-.122-.3a9.683,9.683,0,0,0,1.58-1.292,6.365,6.365,0,0,0,1.006-1.5,8.031,8.031,0,0,0,.645-1.85,11.272,11.272,0,0,0,.363-2.256h-.164a13.167,13.167,0,0,0-1.686.106Zm1.2-5.11,1.518.525a.373.373,0,0,1,.285.362q0,.208-.663.315a17.643,17.643,0,0,1-1.624,2.663,14.428,14.428,0,0,1-1.743,1.848l-.36-.2a14.643,14.643,0,0,0,1.473-2.509A19.817,19.817,0,0,0,249.688,156.472Zm1.924-.556a11.055,11.055,0,0,0,1.986.179h.074l.648-.6.933.677c.139.115.21.217.21.315s-.262.244-.783.464a6.2,6.2,0,0,0,.556,1.232,6.629,6.629,0,0,0,.9,1.024,11.687,11.687,0,0,0,1.968,1.352l-.178.318a1.561,1.561,0,0,0-.692.087c-.149.033-.36.222-.632.574a16.294,16.294,0,0,1-1.233-1.46,7.594,7.594,0,0,1-.813-1.491,8.788,8.788,0,0,1-.54-2.058H253.6a12.138,12.138,0,0,0-1.684.121Z" transform="translate(-104.279 -155.193)" fill="#1a1311"/>
      <path id="路径_895" data-name="路径 895" d="M253.855,157.336a11.041,11.041,0,0,0,1.984.182h2.6c.33-.7.648-1.464.945-2.286l1.461.3c.229.05.344.152.344.315q0,.21-.66.344c-.2.451-.424.893-.662,1.325H265.7l.96-1.069,1.25.9a.509.509,0,0,1,.194.368c0,.152-.1.232-.3.232h-8.164a19.264,19.264,0,0,1-1.4,2.106l.181.1h6.314l.6-.719,1.007.781a.376.376,0,0,1,.194.3c0,.092-.063.163-.194.213l-.407.226v6.853a1.4,1.4,0,0,1-.811,1.248,2.565,2.565,0,0,1-1.218.377,1.08,1.08,0,0,0-.179-.739,4.3,4.3,0,0,0-1.7-.466v-.362l2.1.08c.4,0,.6-.127.6-.377V165.59h-6.314V168.9a.447.447,0,0,1-.317.451,1.506,1.506,0,0,1-.526.09c-.261,0-.4-.14-.424-.421,0-.3.024-.837.062-1.609v-6.152a17.522,17.522,0,0,1-3.187,2.527l-.24-.344a14.124,14.124,0,0,0,3.159-3.281,16.55,16.55,0,0,0,1.292-2.209h-2.406a11.7,11.7,0,0,0-1.684.121Zm4.571,5.175h6.314V160.6h-6.314Zm0,2.645h6.314v-2.209h-6.314Z" transform="translate(-99.047 -155.233)" fill="#1a1311"/>
      <path id="路径_896" data-name="路径 896" d="M265.72,156.49v12.645c0,.133-.1.226-.286.285a2.313,2.313,0,0,1-.556.062c-.24,0-.36-.115-.36-.347l.062-2.421V156.446a3.382,3.382,0,0,0-.122-.992l1.263.6h2.045l.6-.662,1.052.786a.416.416,0,0,1,.211.312c0,.112-.069.185-.211.226l-.451.136q-.676,1.5-1.864,3.608a4.766,4.766,0,0,1,1.579,1.637,3.919,3.919,0,0,1,.523,1.852,2.269,2.269,0,0,1-.719,1.758,2,2,0,0,1-1.262.469q-.077-.769-.419-.831l-.906-.253.06-.409,1.2.106a.754.754,0,0,0,.635-.283,1.642,1.642,0,0,0,.27-1.024,3.774,3.774,0,0,0-.362-1.564,4.132,4.132,0,0,0-1.083-1.4,33.621,33.621,0,0,0,1.113-4.029Zm5.473,5.175v5.156c.944-.2,1.87-.419,2.782-.645l.045.3a36.306,36.306,0,0,1-4.029,1.806l-.152.526a.187.187,0,0,1-.21.195c-.13,0-.222-.092-.27-.271l-.573-1.457c.419-.08.843-.16,1.263-.243V156.656a3.534,3.534,0,0,0-.119-.948l1.262.6h4.5l.615-.736,1.022.783a.382.382,0,0,1,.182.3c0,.06-.06.128-.182.211l-.421.213v4.644a.477.477,0,0,1-.253.436,1.086,1.086,0,0,1-.467.1c-.323,0-.48-.1-.48-.3v-.3H273.39a14.75,14.75,0,0,0,1.126,2.494c.087.142.175.277.256.407a9.64,9.64,0,0,0,1.773-1.879l1.1.841a.428.428,0,0,1,.226.359c0,.2-.08.3-.243.3l-.6-.1q-.721.375-1.968.9a9.382,9.382,0,0,0,1.2,1.325,8.438,8.438,0,0,0,2.09,1.366l-.119.421a1.914,1.914,0,0,0-.588.074c-.19.033-.436.268-.739.71a6.76,6.76,0,0,1-1.61-1.671,11.031,11.031,0,0,1-1.425-2.544,19.511,19.511,0,0,1-.843-3Zm0-4.948V158.7h4.513v-1.983Zm0,2.421v2.091h4.513v-2.091Z" transform="translate(-93.634 -155.152)" fill="#1a1311"/>
      <path id="路径_897" data-name="路径 897" d="M278.212,156.309l1.5.513c.2.089.3.195.3.315,0,.142-.264.265-.781.374a21.611,21.611,0,0,1-2,3.068,14.56,14.56,0,0,1-2.631,2.571l-.36-.238a20.2,20.2,0,0,0,2.135-2.783A20.458,20.458,0,0,0,278.212,156.309Zm1.622,4.317,1.552.422c.208.047.312.152.312.315s-.219.306-.66.4a33.207,33.207,0,0,1-2,3.732q-.527.8-1.144,1.654c.3-.011.608-.026.917-.047q1.943-.088,3.806-.21c.992-.06,1.871-.127,2.634-.193a26.528,26.528,0,0,0-1.924-2.7l.3-.253a22.913,22.913,0,0,1,2.813,2.406,3.022,3.022,0,0,1,.976,2.044c0,.482-.219.721-.66.721-.249,0-.483-.244-.691-.736-.179-.359-.371-.71-.571-1.051q-1.009.208-2.21.388c-1.081.2-2.491.407-4.225.62q-1.52.181-2.83.315l-.178.406c-.071.21-.173.315-.3.315-.1-.02-.175-.121-.226-.3l-.437-1.625c.663-.021,1.428-.044,2.3-.077a16.267,16.267,0,0,0,1.218-2.571A31.14,31.14,0,0,0,279.834,160.625Zm.722-4.691a11.415,11.415,0,0,0,2,.179h.466l.662-.6.932.68c.14.115.211.216.211.294,0,.1-.262.271-.783.5a9.83,9.83,0,0,0,.767,1.82,8.561,8.561,0,0,0,1.248,1.473,15.77,15.77,0,0,0,2.675,1.984l-.179.3c-.381,0-.606.033-.677.1q-.256.043-.647.556a19.909,19.909,0,0,1-1.833-1.94,10.05,10.05,0,0,1-1.2-1.971,11.981,11.981,0,0,1-.81-2.765h-.829a11.828,11.828,0,0,0-1.7.121Z" transform="translate(-88.666 -155.092)" fill="#1a1311"/>
      <path id="路径_898" data-name="路径 898" d="M284.915,156.072a10.064,10.064,0,0,0,1.968.194h9.624l.662-.795,1.051.826a.379.379,0,0,1,.213.317c0,.1-.066.179-.194.241l-.409.241v10.78a1.469,1.469,0,0,1-.9,1.294,3.2,3.2,0,0,1-1.386.374,1.186,1.186,0,0,0-.179-.781,6.242,6.242,0,0,0-1.925-.479v-.345l2.406.042c.483,0,.724-.119.724-.36V156.675h-9.686a11.943,11.943,0,0,0-1.683.119Zm.886,2.645a10.041,10.041,0,0,0,1.984.2h4.932l.9-1.037,1.188.872a.488.488,0,0,1,.194.333.213.213,0,0,1-.238.241h-6.978a10.2,10.2,0,0,0-1.684.136Zm.84,1.987,1.264.6H292.3l.665-.66.885.689c.172.113.256.2.256.271a.248.248,0,0,1-.166.241l-.375.195v2.586l.059,1.325a.306.306,0,0,1-.195.27.728.728,0,0,1-.464.136c-.36,0-.544-.1-.544-.3v-.707H287.9v.945a.337.337,0,0,1-.255.345,1.255,1.255,0,0,1-.587.139.327.327,0,0,1-.36-.363l.06-1.444v-3.308A2.4,2.4,0,0,0,286.641,160.7Zm1.264,4.211h4.511v-3.171H287.9Z" transform="translate(-83.247 -155.112)" fill="#1a1311"/>
    </g>
  </g>
</svg>
