<svg xmlns="http://www.w3.org/2000/svg" width="18.929" height="19.889" viewBox="0 0 18.929 19.889">
  <g id="组_2987" data-name="组 2987" transform="translate(-537.88 -269.252)">
    <path id="路径_984" data-name="路径 984" d="M547.336,384.2q-3.968,0-7.937,0c-.659,0-.679-.024-.683-.692a4.784,4.784,0,0,0,0-.559c-.237-1.9.8-3.018,2.342-3.827a11.974,11.974,0,0,1,4.83-1.3,15.356,15.356,0,0,1,6.855.868,6.31,6.31,0,0,1,2.63,1.766,2.532,2.532,0,0,1,.637,1.724c-.012.441,0,.882,0,1.323,0,.669-.024.693-.682.693Q551.33,384.2,547.336,384.2Z" transform="translate(0 -95.859)" fill="none" stroke="#aaa" stroke-miterlimit="10" stroke-width="1.6"/>
    <path id="路径_985" data-name="路径 985" d="M590.559,275.377a4.272,4.272,0,1,1-4.252-4.325A4.23,4.23,0,0,1,590.559,275.377Z" transform="translate(-38.926 -1)" fill="none" stroke="#aaa" stroke-miterlimit="10" stroke-width="1.6"/>
  </g>
</svg>
