<svg xmlns="http://www.w3.org/2000/svg" width="176.863" height="39" viewBox="0 0 176.863 39">
  <g id="组_2997" data-name="组 2997" transform="translate(-151.034 -133.307)">
    <path id="路径_860" data-name="路径 860" d="M288.789,148.328l1.5-.223a1.07,1.07,0,0,0,.378.7,1.145,1.145,0,0,0,.8.251,1.421,1.421,0,0,0,.879-.228.523.523,0,0,0,.076-.749.942.942,0,0,0-.477-.2,7.346,7.346,0,0,1-2.281-.8,1.6,1.6,0,0,1-.65-1.378,1.752,1.752,0,0,1,.551-1.353,2.5,2.5,0,0,1,1.778-.549,2.934,2.934,0,0,1,1.728.426,2.12,2.12,0,0,1,.751,1.2l-1.377.3a.967.967,0,0,0-.353-.551,1.02,1.02,0,0,0-.7-.2,1.515,1.515,0,0,0-.852.173.431.431,0,0,0-.175.328.365.365,0,0,0,.149.3,5.438,5.438,0,0,0,1.381.452,3.89,3.89,0,0,1,1.652.723,1.574,1.574,0,0,1,.477,1.228,1.959,1.959,0,0,1-.651,1.454,2.671,2.671,0,0,1-1.906.6,3.02,3.02,0,0,1-1.8-.5A2.433,2.433,0,0,1,288.789,148.328Z" transform="translate(32.805 2.498)" fill="#005192"/>
    <g id="组_1355" data-name="组 1355" transform="translate(151.034 133.307)">
      <path id="路径_861" data-name="路径 861" d="M160.278,133.309a9.361,9.361,0,0,1,8.417,6.359l-2.355.477c-.978-2.73-3.056-4.582-5.912-4.582-4.057,0-6.537,3.806-6.537,8.49,0,4.659,2.58,8.492,6.537,8.492a5.691,5.691,0,0,0,3.707-1.277l.477,2.429a8.314,8.314,0,0,1-4.334,1.227c-5.662,0-9.244-4.858-9.244-10.845C151.034,138.116,155.116,133.181,160.278,133.309Z" transform="translate(-151.034 -133.307)" fill="#575554" fill-rule="evenodd" opacity="0.995"/>
      <path id="路径_862" data-name="路径 862" d="M178.572,147.429l1.5.525a3.8,3.8,0,0,1-1.151,2.08,3.445,3.445,0,0,1-4.584-.5,4.76,4.76,0,0,1-.979-3.156,4.9,4.9,0,0,1,1-3.31,3.257,3.257,0,0,1,2.605-1.175,3.106,3.106,0,0,1,2.305.926,3.479,3.479,0,0,1,.778,1.581l-1.529.4a1.793,1.793,0,0,0-.577-1.049,1.583,1.583,0,0,0-1.05-.375,1.733,1.733,0,0,0-1.405.675,3.608,3.608,0,0,0-.525,2.2,3.925,3.925,0,0,0,.525,2.307,1.658,1.658,0,0,0,1.381.672,1.439,1.439,0,0,0,1.052-.449A2.451,2.451,0,0,0,178.572,147.429Z" transform="translate(-145.717 -131.262)" fill="#005192"/>
      <path id="路径_863" data-name="路径 863" d="M182.034,143.795h.074a3.59,3.59,0,0,1,1.478.249,1.654,1.654,0,0,1,.7.68,3.832,3.832,0,0,1,.176,1.452v1.9a7.419,7.419,0,0,0,.073,1.2,3.2,3.2,0,0,0,.253.83h-1.455a3.1,3.1,0,0,1-.149-.5.987.987,0,0,1-.05-.176,2.512,2.512,0,0,1-.8.6,1.865,1.865,0,0,1-.3.126v-1.078a1.5,1.5,0,0,0,.575-.276,1.008,1.008,0,0,0,.353-.552,2.912,2.912,0,0,0,.049-.775v-.327c-.177.051-.477.152-.9.251h-.074v-1.028a4.5,4.5,0,0,0,.977-.3v-.15a.837.837,0,0,0-.2-.677,1.211,1.211,0,0,0-.775-.2Zm-1,2.028-1.326-.276a2.328,2.328,0,0,1,.778-1.326,2.683,2.683,0,0,1,1.553-.426v1.251h-.026a.885.885,0,0,0-.6.18,1.115,1.115,0,0,0-.378.6Zm1,4.336a2.788,2.788,0,0,1-.627.072,1.839,1.839,0,0,1-1.355-.5,1.752,1.752,0,0,1-.5-1.327,1.954,1.954,0,0,1,.224-.926,1.513,1.513,0,0,1,.626-.626,5.357,5.357,0,0,1,1.176-.375,3.016,3.016,0,0,0,.453-.1V147.4a2.126,2.126,0,0,0-.726.276.748.748,0,0,0-.279.574.791.791,0,0,0,.228.576.737.737,0,0,0,.6.253h.175Z" transform="translate(-144.242 -130.809)" fill="#005192"/>
      <path id="路径_864" data-name="路径 864" d="M187.377,143.843a2.471,2.471,0,0,1,.426-.048,2.054,2.054,0,0,1,1.654.853,3.577,3.577,0,0,1,.677,2.328,3.68,3.68,0,0,1-.7,2.407,2.02,2.02,0,0,1-1.654.848,2.312,2.312,0,0,1-.4-.024v-1.251h.05a1.012,1.012,0,0,0,.852-.479A2.487,2.487,0,0,0,188.63,147a2.32,2.32,0,0,0-.378-1.454,1.042,1.042,0,0,0-.849-.451h-.026Zm-2.7.1h1.376v.9a1.94,1.94,0,0,1,.728-.754,1.67,1.67,0,0,1,.6-.251V145.1a1.061,1.061,0,0,0-.877.451,2.11,2.11,0,0,0-.375,1.378,2.55,2.55,0,0,0,.375,1.529,1.242,1.242,0,0,0,.877.5v1.251a2.008,2.008,0,0,1-.425-.175,2.8,2.8,0,0,1-.8-.7v3.109h-1.475Z" transform="translate(-143.023 -130.809)" fill="#005192"/>
      <path id="路径_865" data-name="路径 865" d="M190.033,143.518v-1.5h1.48v1.5Zm0,7.014v-6.161h1.48v6.161Z" transform="translate(-141.747 -131.233)" fill="#005192"/>
      <path id="路径_866" data-name="路径 866" d="M195.111,144.338v1.3h-1v2.481a5.789,5.789,0,0,0,.026.875.5.5,0,0,0,.123.2.484.484,0,0,0,.25.074,1.722,1.722,0,0,0,.6-.15l.126,1.277a2.727,2.727,0,0,1-1.151.225,1.621,1.621,0,0,1-.727-.15,1.057,1.057,0,0,1-.475-.375,1.417,1.417,0,0,1-.2-.625,6.554,6.554,0,0,1-.048-1.154v-2.679h-.679v-1.3h.679V143.11l1.478-.956v2.184Z" transform="translate(-141.289 -131.2)" fill="#005192"/>
      <path id="路径_867" data-name="路径 867" d="M197.511,143.795h.1a3.458,3.458,0,0,1,1.456.249,1.657,1.657,0,0,1,.7.68,3.653,3.653,0,0,1,.2,1.452l-.027,1.9a7.2,7.2,0,0,0,.077,1.2,4.548,4.548,0,0,0,.25.83h-1.451c-.049-.129-.078-.276-.152-.5-.026-.074-.026-.15-.05-.176a2.5,2.5,0,0,1-.8.6,2.055,2.055,0,0,1-.3.126v-1.078a1.366,1.366,0,0,0,.577-.276,1.01,1.01,0,0,0,.35-.552,2.594,2.594,0,0,0,.077-.775v-.327c-.2.051-.5.152-.905.251h-.1v-1.028a5.364,5.364,0,0,0,1-.3v-.15a.846.846,0,0,0-.227-.677,1.171,1.171,0,0,0-.778-.2Zm-.976,2.028-1.353-.276a2.333,2.333,0,0,1,.775-1.326,2.69,2.69,0,0,1,1.554-.426v1.251h-.023a.885.885,0,0,0-.6.18.957.957,0,0,0-.35.6Zm.976,4.336a2.592,2.592,0,0,1-.625.072,1.832,1.832,0,0,1-1.353-.5,1.748,1.748,0,0,1-.5-1.327,1.941,1.941,0,0,1,.225-.926,1.5,1.5,0,0,1,.625-.626,5.371,5.371,0,0,1,1.177-.375,2.952,2.952,0,0,0,.451-.1V147.4a2.429,2.429,0,0,0-.727.276.748.748,0,0,0-.275.574.79.79,0,0,0,.227.576.737.737,0,0,0,.6.253h.173Z" transform="translate(-140.556 -130.809)" fill="#005192"/>
      <rect id="矩形_337" data-name="矩形 337" width="1.479" height="8.516" transform="translate(60.864 10.782)" fill="#005192"/>
      <path id="路径_868" data-name="路径 868" d="M207.812,147.429V146h3.357v3.383a4.3,4.3,0,0,1-1.429.929,5.022,5.022,0,0,1-1.878.373,3.882,3.882,0,0,1-2.1-.551,3.429,3.429,0,0,1-1.352-1.6,5.717,5.717,0,0,1-.451-2.256,5.189,5.189,0,0,1,.5-2.376,3.565,3.565,0,0,1,1.48-1.58,3.759,3.759,0,0,1,1.852-.427,3.359,3.359,0,0,1,2.23.675,2.939,2.939,0,0,1,1.052,1.832l-1.555.324a1.781,1.781,0,0,0-.627-1,1.742,1.742,0,0,0-1.1-.35,1.985,1.985,0,0,0-1.629.7,3.264,3.264,0,0,0-.6,2.13,3.634,3.634,0,0,0,.6,2.278,1.978,1.978,0,0,0,1.6.749,2.313,2.313,0,0,0,.976-.224,2.808,2.808,0,0,0,.853-.5v-1.076Z" transform="translate(-138.432 -131.262)" fill="#005192"/>
      <path id="路径_869" data-name="路径 869" d="M213.091,143.795h.1a3.677,3.677,0,0,1,1.48.249,1.463,1.463,0,0,1,.676.68,3.717,3.717,0,0,1,.2,1.452l-.03,1.9a7.306,7.306,0,0,0,.078,1.2,4.583,4.583,0,0,0,.274.83h-1.477c-.026-.129-.076-.276-.126-.5a.629.629,0,0,0-.074-.176,2.213,2.213,0,0,1-.8.6,1.875,1.875,0,0,1-.3.126v-1.078a1.352,1.352,0,0,0,.577-.276,1.067,1.067,0,0,0,.375-.552,4.854,4.854,0,0,0,.048-.775v-.327c-.2.051-.5.152-.9.251h-.1v-1.028a4.776,4.776,0,0,0,1-.3v-.15a.838.838,0,0,0-.227-.677,1.145,1.145,0,0,0-.774-.2Zm-.979,2.028-1.351-.276a2.477,2.477,0,0,1,.776-1.326,2.693,2.693,0,0,1,1.554-.426v1.251h0a.914.914,0,0,0-.626.18.969.969,0,0,0-.353.6Zm.979,4.336a2.61,2.61,0,0,1-.626.072,1.728,1.728,0,0,1-1.855-1.827,1.929,1.929,0,0,1,.228-.926,1.549,1.549,0,0,1,.648-.626,4.6,4.6,0,0,1,1.18-.375,2.126,2.126,0,0,0,.426-.1V147.4a1.96,1.96,0,0,0-.7.276.7.7,0,0,0-.3.574.8.8,0,0,0,.223.576.776.776,0,0,0,.6.253h.175Z" transform="translate(-136.847 -130.809)" fill="#005192"/>
      <path id="路径_870" data-name="路径 870" d="M218.284,144.338v1.3h-1.026v2.481a4.609,4.609,0,0,0,.05.875.257.257,0,0,0,.125.2.416.416,0,0,0,.249.074,2.049,2.049,0,0,0,.6-.15l.125,1.277a2.928,2.928,0,0,1-1.177.225,1.7,1.7,0,0,1-.727-.15,1.214,1.214,0,0,1-.475-.375,1.828,1.828,0,0,1-.2-.625,10.659,10.659,0,0,1-.048-1.154v-2.679H215.1v-1.3h.677V143.11l1.478-.956v2.184Z" transform="translate(-135.777 -131.2)" fill="#005192"/>
      <path id="路径_871" data-name="路径 871" d="M222.132,148.127l1.481.276a2.577,2.577,0,0,1-.9,1.378,2.444,2.444,0,0,1-1.5.449h-.073v-1.2h.1a.771.771,0,0,0,.551-.225,1.216,1.216,0,0,0,.349-.677Zm-1-4.332a2.44,2.44,0,0,1,1.877.9,4.394,4.394,0,0,1,.676,2.783h-2.553V146.5h1.1a1.634,1.634,0,0,0-.35-1.077.921.921,0,0,0-.727-.378h-.025Zm0,6.436a2.31,2.31,0,0,1-2.081-1.051,3.667,3.667,0,0,1-.551-2.1,3.531,3.531,0,0,1,.726-2.4,2.3,2.3,0,0,1,1.827-.878h.079v1.251a.976.976,0,0,0-.779.378,1.626,1.626,0,0,0-.324,1.077h1.1v.977h-1.128a1.644,1.644,0,0,0,.375,1.127,1.055,1.055,0,0,0,.753.426Z" transform="translate(-134.967 -130.809)" fill="#005192"/>
      <path id="路径_872" data-name="路径 872" d="M225.034,150.078l-1.777-6.16h1.429l1.05,4.03.978-4.03h1.427l.929,4.03,1.052-4.03H231.6l-1.8,6.16h-1.429l-.95-3.983-.952,3.983Z" transform="translate(-133.835 -130.78)" fill="#005192"/>
      <path id="路径_873" data-name="路径 873" d="M233.121,143.795h.1a3.592,3.592,0,0,1,1.48.249,1.46,1.46,0,0,1,.675.68,3.723,3.723,0,0,1,.2,1.452l-.026,1.9a7.225,7.225,0,0,0,.076,1.2,4.5,4.5,0,0,0,.275.83h-1.452a3.083,3.083,0,0,1-.15-.5.989.989,0,0,1-.05-.176,2.339,2.339,0,0,1-.827.6,1.889,1.889,0,0,1-.3.126v-1.078a1.61,1.61,0,0,0,.6-.276,1,1,0,0,0,.349-.552,4.52,4.52,0,0,0,.05-.775v-.327c-.176.051-.475.152-.9.251h-.1v-1.028a4.328,4.328,0,0,0,1-.3v-.15a.948.948,0,0,0-.2-.677,1.247,1.247,0,0,0-.8-.2Zm-.976,2.028-1.33-.276a2.336,2.336,0,0,1,.779-1.326,2.6,2.6,0,0,1,1.527-.426v1.251h0a.911.911,0,0,0-.625.18,1.23,1.23,0,0,0-.35.6Zm.976,4.336a2.562,2.562,0,0,1-.6.072,1.938,1.938,0,0,1-1.378-.5,1.845,1.845,0,0,1-.5-1.327,1.954,1.954,0,0,1,.224-.926,1.726,1.726,0,0,1,.651-.626,4.918,4.918,0,0,1,1.177-.375,2.107,2.107,0,0,0,.426-.1V147.4a2.18,2.18,0,0,0-.7.276.7.7,0,0,0-.3.574.819.819,0,0,0,.249.576.727.727,0,0,0,.578.253h.175Z" transform="translate(-132.076 -130.809)" fill="#005192"/>
      <path id="路径_874" data-name="路径 874" d="M235.417,143.918h1.576l1.329,4.356,1.3-4.356h1.53l-1.956,5.911-.352,1.076a6.753,6.753,0,0,1-.374.825,1.917,1.917,0,0,1-.4.479,2.448,2.448,0,0,1-.573.274,3.381,3.381,0,0,1-.752.1,4.614,4.614,0,0,1-.83-.1l-.15-1.277a3.173,3.173,0,0,0,.627.074.914.914,0,0,0,.775-.35,2.969,2.969,0,0,0,.379-.851Z" transform="translate(-130.939 -130.78)" fill="#005192"/>
      <rect id="矩形_338" data-name="矩形 338" width="1.579" height="8.516" transform="translate(114.119 10.782)" fill="#005192"/>
      <path id="路径_875" data-name="路径 875" d="M250.764,150.108h-1.5V146.95a6.237,6.237,0,0,0-.076-1.278,1.071,1.071,0,0,0-.323-.473.789.789,0,0,0-.5-.154,1.1,1.1,0,0,0-1.1.852,5.815,5.815,0,0,0-.124,1.405v2.806h-1.477v-6.161h1.376v.9a2.157,2.157,0,0,1,1.831-1.054,2.186,2.186,0,0,1,.9.2,1.571,1.571,0,0,1,.624.505,1.921,1.921,0,0,1,.277.674,5.769,5.769,0,0,1,.1,1.1Z" transform="translate(-128.501 -130.809)" fill="#005192"/>
      <path id="路径_876" data-name="路径 876" d="M252.664,150.079l-2.255-6.161h1.553l1.054,3.128.3,1.052c.071-.251.121-.449.149-.525.052-.177.1-.35.15-.527l1.078-3.128h1.527l-2.23,6.161Z" transform="translate(-127.369 -130.78)" fill="#005192"/>
      <path id="路径_877" data-name="路径 877" d="M259.145,148.127l1.48.276a2.887,2.887,0,0,1-.905,1.378,2.507,2.507,0,0,1-1.527.449h-.076v-1.2h.076a.846.846,0,0,0,.6-.225,1.24,1.24,0,0,0,.352-.677Zm-1.028-4.332a2.359,2.359,0,0,1,1.878.9,4.239,4.239,0,0,1,.7,2.783h-2.579V146.5h1.1a1.5,1.5,0,0,0-.326-1.077.938.938,0,0,0-.776-.378h0Zm0,6.436a2.314,2.314,0,0,1-2.08-1.051,3.677,3.677,0,0,1-.551-2.1,3.513,3.513,0,0,1,.729-2.4,2.257,2.257,0,0,1,1.829-.878h.073v1.251a.945.945,0,0,0-.779.378,1.632,1.632,0,0,0-.322,1.077h1.1v.977h-1.128a1.652,1.652,0,0,0,.349,1.127,1.171,1.171,0,0,0,.779.426Z" transform="translate(-126.16 -130.809)" fill="#005192"/>
      <path id="路径_878" data-name="路径 878" d="M260.242,148.328l1.5-.223a1.09,1.09,0,0,0,.376.7,1.152,1.152,0,0,0,.8.251,1.413,1.413,0,0,0,.878-.228.517.517,0,0,0,.076-.749.953.953,0,0,0-.477-.2,7.359,7.359,0,0,1-2.281-.8,1.6,1.6,0,0,1-.649-1.378,1.759,1.759,0,0,1,.549-1.353,2.5,2.5,0,0,1,1.779-.549,2.938,2.938,0,0,1,1.73.426,2.134,2.134,0,0,1,.753,1.2l-1.378.3a.985.985,0,0,0-.352-.551,1.029,1.029,0,0,0-.7-.2,1.517,1.517,0,0,0-.854.173.435.435,0,0,0-.175.328.364.364,0,0,0,.151.3,5.27,5.27,0,0,0,1.376.452,3.9,3.9,0,0,1,1.653.723,1.566,1.566,0,0,1,.477,1.228,1.963,1.963,0,0,1-.651,1.454,2.664,2.664,0,0,1-1.9.6,3.021,3.021,0,0,1-1.8-.5A2.423,2.423,0,0,1,260.242,148.328Z" transform="translate(-125.027 -130.809)" fill="#005192"/>
      <path id="路径_879" data-name="路径 879" d="M268.2,144.338v1.3h-1v2.481a6.065,6.065,0,0,0,.025.875.255.255,0,0,0,.126.2.411.411,0,0,0,.251.074,2.075,2.075,0,0,0,.6-.15l.124,1.277a2.929,2.929,0,0,1-1.175.225,1.706,1.706,0,0,1-.728-.15,1.205,1.205,0,0,1-.475-.375,1.855,1.855,0,0,1-.2-.625,10.343,10.343,0,0,1-.048-1.154v-2.679h-.676v-1.3h.676V143.11l1.5-.956v2.184Z" transform="translate(-123.89 -131.2)" fill="#005192"/>
      <path id="路径_880" data-name="路径 880" d="M268.313,143.947h1.381v.825a2.129,2.129,0,0,1,1.728-.977,1.7,1.7,0,0,1,.952.249,1.866,1.866,0,0,1,.65.728,2.342,2.342,0,0,1,.778-.728,1.788,1.788,0,0,1,.927-.249,1.89,1.89,0,0,1,1.026.276,1.612,1.612,0,0,1,.653.8,4.026,4.026,0,0,1,.149,1.275v3.96h-1.48v-3.534a2.877,2.877,0,0,0-.15-1.177.724.724,0,0,0-.65-.352,1.022,1.022,0,0,0-.577.2,1.233,1.233,0,0,0-.4.626,4.915,4.915,0,0,0-.124,1.277v2.958H271.7v-3.384a4.99,4.99,0,0,0-.077-1.151.66.66,0,0,0-.25-.4.737.737,0,0,0-.451-.126,1.024,1.024,0,0,0-.6.2,1.109,1.109,0,0,0-.4.576,5.1,5.1,0,0,0-.125,1.277v3.009h-1.48Z" transform="translate(-123.105 -130.809)" fill="#005192"/>
      <path id="路径_881" data-name="路径 881" d="M279.483,148.127l1.478.276a2.9,2.9,0,0,1-.9,1.378,2.521,2.521,0,0,1-1.528.449h-.076v-1.2h.076a.777.777,0,0,0,.575-.225,1.1,1.1,0,0,0,.376-.677Zm-1.026-4.332a2.364,2.364,0,0,1,1.878.9,4.373,4.373,0,0,1,.7,2.783h-2.578V146.5h1.1a1.627,1.627,0,0,0-.327-1.077.971.971,0,0,0-.776-.378h0Zm0,6.436a2.354,2.354,0,0,1-2.1-1.051,3.847,3.847,0,0,1-.551-2.1,3.657,3.657,0,0,1,.726-2.4,2.346,2.346,0,0,1,1.856-.878h.074v1.251a1.017,1.017,0,0,0-.8.378,1.761,1.761,0,0,0-.3,1.077h1.1v.977H277.33a1.64,1.64,0,0,0,.349,1.127,1.155,1.155,0,0,0,.778.426Z" transform="translate(-121.322 -130.809)" fill="#005192"/>
      <path id="路径_882" data-name="路径 882" d="M286.086,150.108h-1.477V146.95a4.65,4.65,0,0,0-.1-1.278,1.055,1.055,0,0,0-.3-.473.9.9,0,0,0-.526-.154,1.106,1.106,0,0,0-.677.228,1.226,1.226,0,0,0-.426.624,6.039,6.039,0,0,0-.1,1.405v2.806H281v-6.161h1.351v.9a2.158,2.158,0,0,1,2.757-.856,1.547,1.547,0,0,1,.6.505,1.663,1.663,0,0,1,.3.674,6.069,6.069,0,0,1,.074,1.1Z" transform="translate(-120.084 -130.809)" fill="#005192"/>
      <path id="路径_883" data-name="路径 883" d="M289,144.338v1.3h-1v2.481a5.775,5.775,0,0,0,.026.875.332.332,0,0,0,.124.2.416.416,0,0,0,.251.074,1.765,1.765,0,0,0,.6-.15l.124,1.277a2.852,2.852,0,0,1-1.179.225,1.563,1.563,0,0,1-.7-.15,1.035,1.035,0,0,1-.477-.375,1.786,1.786,0,0,1-.228-.625c-.024-.2-.024-.576-.024-1.154v-2.679h-.7v-1.3h.7V143.11l1.478-.956v2.184Z" transform="translate(-118.937 -131.2)" fill="#005192"/>
      <path id="路径_884" data-name="路径 884" d="M158.231,141.768h8.916v10h-1.427l-.953-2.682v-5.009h-6.537Z" transform="translate(-149.32 -131.292)" fill="#005192" fill-rule="evenodd"/>
      <g id="组_1354" data-name="组 1354" transform="translate(0.156 27.147)">
        <path id="路径_885" data-name="路径 885" d="M156.348,155.273l1.259.159c.246.035.37.116.37.248,0,.166-.182.311-.544.432v.545h3.9l.739-.593.915.655a.312.312,0,0,1,.172.3c0,.089-.084.16-.248.21l-.345.1a10.114,10.114,0,0,1-1.333.929l-.3-.1a6.873,6.873,0,0,0,.506-1.137h-8.807a3.131,3.131,0,0,1-.344,1.3c-.188.287-.388.432-.593.432-.362,0-.544-.165-.544-.493a.6.6,0,0,1,.187-.409,6.149,6.149,0,0,0,.458-.545,6.248,6.248,0,0,0,.591-1.284l.3.051c0,.213,0,.411-.011.593H156.4v-.593Q156.4,155.864,156.348,155.273ZM152.4,161.84l1.087.545H160.4l.593-.593.74.6c.131.09.2.17.2.235a.205.205,0,0,1-.134.2l-.311.147V165.4l.05,1.086a.316.316,0,0,1-.161.271.562.562,0,0,1-.381.125c-.329,0-.5-.084-.5-.249v-.43h-7.013v.282a.32.32,0,0,1-.21.322.985.985,0,0,1-.482.123c-.213,0-.331-.113-.347-.345l.051-1.233V162.68A2.285,2.285,0,0,0,152.4,161.84Zm.395-3.951a9.081,9.081,0,0,0,1.631.15h4.643l.691-.779.938.667a.372.372,0,0,1,.146.264c0,.137-.063.206-.194.206h-6.224a9.776,9.776,0,0,0-1.382.1Zm.692.952,1.038.494h4.79l.545-.542.74.566c.131.076.2.145.2.21a.228.228,0,0,1-.135.2l-.308.16v.494l.05,1.088a.251.251,0,0,1-.161.219.581.581,0,0,1-.381.111c-.3,0-.447-.082-.447-.244v-.249H154.52v.111a.274.274,0,0,1-.209.27,1.05,1.05,0,0,1-.484.111.269.269,0,0,1-.3-.295l.05-1.173v-.753A1.906,1.906,0,0,0,153.483,158.841Zm0,5.234h2.963v-1.332h-2.963Zm0,1.766h2.963v-1.433h-2.963Zm1.038-4.827h4.888v-1.347H154.52Zm2.864,1.73v1.332H160.5v-1.332Zm0,3.1H160.5v-1.433h-3.111Z" transform="translate(-151.16 -155.223)" fill="#1a1311"/>
        <path id="路径_886" data-name="路径 886" d="M163.519,157.408v1.522h2.133l.532-.446.827.6a.283.283,0,0,1,.113.2.2.2,0,0,1-.136.186l-.26.111a8.061,8.061,0,0,1-.186,1.53,1.638,1.638,0,0,1-.444.888,1.524,1.524,0,0,1-1,.3c-.09-.4-.232-.622-.421-.653l-.914-.175.05-.358a8.167,8.167,0,0,0,1.285.2.482.482,0,0,0,.407-.161,1.09,1.09,0,0,0,.184-.605,11.665,11.665,0,0,0,.1-1.259h-2.271a5.871,5.871,0,0,1-.568,2.691,4.922,4.922,0,0,1-1.41,1.669l-.2-.21a4.411,4.411,0,0,0,.813-1.381,8.489,8.489,0,0,0,.371-2.868V157.4a7.058,7.058,0,0,0-.05-.94l.963.592h4.025c-.108-.525-.2-1.119-.295-1.777l1.123.11c.236.025.359.107.359.246,0,.066-.151.16-.446.286.057.388.131.764.222,1.134h2.742l.74-.827.976.7a.393.393,0,0,1,.161.291.173.173,0,0,1-.2.191H168.53c.083.314.182.626.3.939a6.77,6.77,0,0,0,.886,1.654,4.963,4.963,0,0,0,.334-.467,15.224,15.224,0,0,0,.729-1.533l1.173.508a.308.308,0,0,1,.161.295c0,.116-.165.193-.494.235a12.825,12.825,0,0,1-1.174,1.533c-.04.038-.083.079-.123.12a3.208,3.208,0,0,0,.79.608,1.891,1.891,0,0,0,1.049.454c.1,0,.186-.094.261-.284l.53-1.492.246.048-.285,1.679a.626.626,0,0,0,.151.4.406.406,0,0,1,.134.295c0,.23-.213.347-.641.347a3.883,3.883,0,0,1-2.063-.69,7.261,7.261,0,0,1-.888-.73c-.115.092-.228.172-.334.246a8.082,8.082,0,0,1-1.494.791,13.985,13.985,0,0,1-1.741.581l-.147-.3a13.6,13.6,0,0,0,1.8-.839,6.872,6.872,0,0,0,1.371-1.05c-.116-.15-.228-.3-.332-.457a9.386,9.386,0,0,1-.929-1.976c-.08-.28-.167-.582-.258-.914Zm-.5,5.224,1.087.544h6.323l.493-.581.827.618a.341.341,0,0,1,.162.26c0,.081-.056.144-.162.184l-.333.16v2.469h.1l.69-.789.94.692a.334.334,0,0,1,.147.251.179.179,0,0,1-.2.206H163.023a8.816,8.816,0,0,0-1.382.109l-.246-.614a9.277,9.277,0,0,0,1.628.145h.1v-2.813A3.316,3.316,0,0,0,163.023,162.631Zm1.087,3.654h1.434v-2.752H164.11Zm2.372,0h1.53v-2.752h-1.53Zm2.468,0h1.483v-2.752H168.95Zm.5-10.965a3.294,3.294,0,0,1,1.21.484.738.738,0,0,1,.37.6c0,.265-.165.4-.492.4a.455.455,0,0,1-.384-.235,4.726,4.726,0,0,0-.9-1.049Z" transform="translate(-148.735 -155.223)" fill="#1a1311"/>
        <path id="路径_887" data-name="路径 887" d="M171.568,157.623a8.276,8.276,0,0,0,1.631.162h1.086l.691-.754.889.643a.365.365,0,0,1,.149.248.174.174,0,0,1-.2.2H173.2a9.822,9.822,0,0,0-1.384.1Zm.3-1.579a8.451,8.451,0,0,0,1.629.16h.494l.641-.7.851.6a.336.336,0,0,1,.139.234.176.176,0,0,1-.2.2h-1.927a9.54,9.54,0,0,0-1.371.1Zm0,3.321a9.778,9.778,0,0,0,1.629.137h.494l.641-.68.851.605a.3.3,0,0,1,.139.219c0,.142-.067.213-.2.213h-1.927a10.97,10.97,0,0,0-1.371.084Zm0,1.668a9.178,9.178,0,0,0,1.629.149h.592l.641-.692.854.619a.306.306,0,0,1,.135.228.177.177,0,0,1-.2.2h-2.027a9.2,9.2,0,0,0-1.371.1Zm.1,1.543.987.494h1.631l.493-.494.655.53c.123.076.186.144.186.2a.169.169,0,0,1-.124.163l-.27.147v1.717l.047.987a.257.257,0,0,1-.147.234.468.468,0,0,1-.347.124c-.3,0-.444-.084-.444-.259v-.444h-1.679v.493a.279.279,0,0,1-.172.286.877.877,0,0,1-.422.11c-.188,0-.285-.1-.295-.3v-3.21A1.926,1.926,0,0,0,171.964,162.575Zm.987,3.062h1.679V163.4h-1.679Zm3.409-9.89a9.054,9.054,0,0,0,1.628.15h.4l.593-.545.864.593a.309.309,0,0,1,.184.259c0,.1-.069.165-.21.2l-.246.061a6.909,6.909,0,0,0,.743.815,4.393,4.393,0,0,0,.431-.716,9.151,9.151,0,0,0,.407-.9l.912.617a.363.363,0,0,1,.173.261c0,.105-.2.16-.592.16a8.125,8.125,0,0,1-1.05.826,5.668,5.668,0,0,0,.706.581,4.484,4.484,0,0,0,.516-.505,4.372,4.372,0,0,0,.568-.764l.879.6c.105.083.16.16.16.234,0,.108-.2.16-.594.16a10.265,10.265,0,0,1-1.123.532.608.608,0,0,0,.121.073,7.519,7.519,0,0,0,1.842.766l-.1.345a2.018,2.018,0,0,0-.418.037c-.116.041-.271.258-.47.655a7.016,7.016,0,0,1-1.431-1.052,6.868,6.868,0,0,1-1.384-1.6,7.038,7.038,0,0,1-.541-.8,5.833,5.833,0,0,1-.655,1.1,9.985,9.985,0,0,1-1.273,1.435,11.346,11.346,0,0,1-1.728,1.32l-.2-.282a12.71,12.71,0,0,0,1.445-1.384c.149-.181.287-.363.42-.544a.674.674,0,0,1-.235.038c-.147,0-.271-.109-.37-.322a3.687,3.687,0,0,0-.765-1.112l.244-.2a8.332,8.332,0,0,1,1.039.617.721.721,0,0,1,.347.518v.111c.115-.182.227-.365.333-.557a6.671,6.671,0,0,0,.531-1.269h-.47a11.753,11.753,0,0,0-1.381.084Zm4.148,8.05,1.124.5c.141.048.209.114.209.2,0,.134-.178.215-.541.25-.292.386-.661.83-1.113,1.332h1.42l.729-.839.974.716a.382.382,0,0,1,.162.291.173.173,0,0,1-.2.191h-5.679a9.853,9.853,0,0,0-1.385.1l-.244-.6a9.042,9.042,0,0,0,1.629.147h2.135c.175-.418.3-.759.4-1.012A12.934,12.934,0,0,0,180.507,163.8Zm-3.851-3.308,1.036.505h3.21l.542-.544.742.556c.13.082.2.157.2.223a.225.225,0,0,1-.135.2l-.31.15v.693l.048,1.093a.3.3,0,0,1-.161.246.634.634,0,0,1-.381.1c-.3,0-.444-.079-.444-.244v-.2h-3.308v.1a.279.279,0,0,1-.21.284,1.054,1.054,0,0,1-.48.111.269.269,0,0,1-.3-.3l.05-1.192v-.991A2.045,2.045,0,0,0,176.657,160.489Zm.937,3.506a11.116,11.116,0,0,1,.926.692.869.869,0,0,1,.31.592.48.48,0,0,1-.545.542c-.123,0-.223-.116-.3-.355a4.425,4.425,0,0,0-.64-1.273Zm-.15-4.544a9.094,9.094,0,0,0,1.632.15h.3l.654-.691.839.614a.311.311,0,0,1,.136.229c0,.136-.066.206-.2.206h-1.728a9.594,9.594,0,0,0-1.383.1Zm.249,3.458H181v-1.581h-3.308Z" transform="translate(-146.3 -155.205)" fill="#1a1311"/>
        <path id="路径_888" data-name="路径 888" d="M190.379,155.273l1.135.31c.2.057.308.132.308.234,0,.13-.186.249-.555.355q-.68.656-1.642,1.47h1.148l.69-.739.89.64a.365.365,0,0,1,.15.266c0,.129-.067.192-.2.192h-3.815a11.571,11.571,0,0,0,1.408,1.657l.012.009h1.913l.728-.825.977.7a.388.388,0,0,1,.161.28.177.177,0,0,1-.2.2h-3.236a7.634,7.634,0,0,0,1.223.963,10.061,10.061,0,0,0,2.211,1.025l-.1.331a1.81,1.81,0,0,0-.406.04c-.125.041-.284.264-.483.665a9.472,9.472,0,0,1-1.777-1.321,8.485,8.485,0,0,1-1.507-1.7h-3.2a9.246,9.246,0,0,1-1.073,1.19c-.182.18-.359.345-.531.5a9.441,9.441,0,0,0,1.52.12h3.407l.544-.541.924.734a.263.263,0,0,1,.111.215c0,.066-.163.17-.492.31a8.955,8.955,0,0,1-.173,1.606,7.506,7.506,0,0,1-.445,1.727,1.108,1.108,0,0,1-.458.619,3.077,3.077,0,0,1-1,.244c-.057-.469-.178-.735-.359-.8l-.974-.282.05-.31,1.431.147a.471.471,0,0,0,.322-.111.661.661,0,0,0,.223-.345,7.284,7.284,0,0,0,.3-1.4q.1-.791.135-1.459h-2.148a5.606,5.606,0,0,1-.482,1.618,4.08,4.08,0,0,1-.753,1.211,4.8,4.8,0,0,1-1.2.951,8.667,8.667,0,0,1-2.174.863l-.1-.246a10.5,10.5,0,0,0,1.641-.815,5.175,5.175,0,0,0,1.062-.974,5,5,0,0,0,.667-1.185,5.442,5.442,0,0,0,.369-1.423h-.43a9.993,9.993,0,0,0-1.384.1l-.209-.505c-.306.254-.618.493-.94.718-.418.286-.86.561-1.321.827l-.2-.2a8.666,8.666,0,0,0,1.383-1.1,13.093,13.093,0,0,0,1.445-1.533c.134-.165.253-.327.359-.482h-1.606a10,10,0,0,0-1.383.1l-.248-.6a9.092,9.092,0,0,0,1.631.145h1.84a7.655,7.655,0,0,0,.593-1.139c.074-.162.145-.338.209-.526h-1.8a9.771,9.771,0,0,0-1.382.1l-.248-.605a8.932,8.932,0,0,0,1.629.147h1.927a22.14,22.14,0,0,0,.693-2.369l1.27.321c.181.073.272.165.272.271,0,.132-.186.251-.56.358-.187.52-.375.994-.566,1.419h1.618A7.132,7.132,0,0,0,190.379,155.273Zm-6.57.246a9.589,9.589,0,0,1,1.21.827.978.978,0,0,1,.42.7c0,.4-.181.592-.544.592-.1,0-.189-.094-.271-.282a8.336,8.336,0,0,0-1.061-1.629Zm5.383,4.147A10.079,10.079,0,0,1,188.169,158h-.79a11.426,11.426,0,0,1-.643,1.216,3.6,3.6,0,0,1-.285.449Z" transform="translate(-143.809 -155.223)" fill="#1a1311"/>
        <path id="路径_889" data-name="路径 889" d="M192.135,157.753a9.66,9.66,0,0,0,1.631.136h.244v-.939a10.639,10.639,0,0,0-.1-1.678l1.259.171c.215.017.321.094.321.235a.256.256,0,0,1-.208.27l-.286.114v1.826h.345l.693-.74.887.655a.333.333,0,0,1,.15.24c0,.137-.067.206-.2.206H195v2.322q.741-.334,1.482-.68l.05.232q-.717.581-1.532,1.151v4.4a1.156,1.156,0,0,1-.592,1.01,1.888,1.888,0,0,1-.94.31,1.545,1.545,0,0,0-.1-.679c-.066-.114-.395-.253-.987-.41v-.3l1.284.162c.229,0,.343-.1.343-.31v-3.53c-.276.181-.558.355-.838.519l-.123.433c-.016.114-.074.17-.175.17s-.168-.076-.209-.233l-.479-1.211q.927-.293,1.824-.629v-2.728h-.244a8.8,8.8,0,0,0-1.383.109Zm4.247,3.26a9.769,9.769,0,0,0,1.631.136h3.358l.593-.593,1.023.667a.278.278,0,0,1,.161.235c0,.1-.212.227-.639.381a14.65,14.65,0,0,1-1.185,1.915,6.838,6.838,0,0,1-.618.652,9.007,9.007,0,0,0,1.036.469,13.75,13.75,0,0,0,2.346.619l-.05.3a.993.993,0,0,0-.593.15c-.181.064-.347.277-.494.64a11.891,11.891,0,0,1-1.987-.8,9.746,9.746,0,0,1-1.062-.7,8.317,8.317,0,0,1-1.668.9,13.992,13.992,0,0,1-2.642.851l-.146-.246a13.86,13.86,0,0,0,2.937-1.307,7.854,7.854,0,0,0,.951-.716,6.651,6.651,0,0,1-1.171-1.631,6.1,6.1,0,0,1-.47-1.419c-.354.014-.709.043-1.06.087Zm1.434-5.494.9.493h1.914l.444-.541.789.556a.32.32,0,0,1,.15.254.2.2,0,0,1-.135.188l-.308.2v2.187c0,.124.077.184.233.184h.755a.77.77,0,0,0,.3-.037,5.1,5.1,0,0,0,.541-1.444l.31.048v1.137a.455.455,0,0,0,.224.395.4.4,0,0,1,.11.31c0,.14-.1.246-.3.321a3.526,3.526,0,0,1-.926.124h-1.26a1.012,1.012,0,0,1-.717-.234,1.186,1.186,0,0,1-.209-.8V156.37H198.8v.545a3.952,3.952,0,0,1-.494,2.135,4.322,4.322,0,0,1-1.384,1.471l-.244-.248a3.607,3.607,0,0,0,.936-1.187,5.839,5.839,0,0,0,.347-2.17A4.457,4.457,0,0,0,197.816,155.519Zm.222,5.99a4.938,4.938,0,0,0,.505,1.01,7.036,7.036,0,0,0,1.285,1.335c.041.033.087.063.135.1a3.619,3.619,0,0,0,.557-.764,13.327,13.327,0,0,0,.925-1.678Z" transform="translate(-141.402 -155.223)" fill="#1a1311"/>
        <path id="路径_890" data-name="路径 890" d="M202.478,156.417a8.966,8.966,0,0,0,1.631.15h.592l.692-.74.888.641a.349.349,0,0,1,.15.265c0,.129-.067.192-.2.192h-2.122a9.821,9.821,0,0,0-1.384.1Zm3.456,1.977.052.246a26.412,26.412,0,0,1-2.47,1.3l-.123.421a.164.164,0,0,1-.173.16c-.092,0-.157-.073-.2-.223l-.445-1.16A31.672,31.672,0,0,0,205.934,158.394Zm.89,6.421.927.592a.347.347,0,0,1,.161.259c0,.106-.2.17-.594.184a14.045,14.045,0,0,1-2.185.706c-.443.124-1.149.269-2.111.431l-.135-.235q1.307-.468,2.122-.851A14.784,14.784,0,0,0,206.824,164.815Zm-2.357-4.742,1.075.541h5.827l.594-.592.739.607c.132.089.2.167.2.234a.205.205,0,0,1-.136.2l-.308.149v2.222l.048,1.085a.3.3,0,0,1-.172.274.524.524,0,0,1-.369.124c-.329,0-.5-.078-.5-.235v-.162h-5.926v.052a.318.318,0,0,1-.21.318.929.929,0,0,1-.482.126.314.314,0,0,1-.345-.334l.048-1.247v-2.508A2.583,2.583,0,0,0,204.466,160.073Zm1.075,1.728h5.926v-.827h-5.926Zm0,1.185h5.926v-.827h-5.926Zm0,1.2h5.926v-.837h-5.926Zm4-7.073,1.062.282c.214.052.322.136.322.259,0,.093-.073.158-.212.2l-.286.048a.026.026,0,0,1-.01.024,4.908,4.908,0,0,0,.7.532,5.22,5.22,0,0,0,.779.383,6.126,6.126,0,0,0,1.148.27c.51.061.987.1,1.434.126l-.051.345a.808.808,0,0,0-.406.1c-.108.027-.236.24-.385.644a6.153,6.153,0,0,1-1.346-.383,4.072,4.072,0,0,1-.877-.444,3.747,3.747,0,0,1-.728-.655,6.328,6.328,0,0,1-.469-.618,2.963,2.963,0,0,1-.556.666,3.881,3.881,0,0,1-.9.607,6.032,6.032,0,0,1-1.135.457c-.469.132-1.017.254-1.642.37l-.149-.2a8.7,8.7,0,0,0,1.507-.545,3.351,3.351,0,0,0,.9-.52,4.553,4.553,0,0,0,.739-.764A4.169,4.169,0,0,0,209.542,157.11Zm-1.58-1.877,1.161.248c.212.041.319.125.319.259,0,.092-.072.142-.209.158l-.435.124c-.137.189-.279.37-.42.545H212.7l.643-.593.877.655a.314.314,0,0,1,.161.3c0,.089-.082.157-.246.2l-.347.111a11.386,11.386,0,0,1-1.236.926l-.3-.1a6.676,6.676,0,0,0,.506-1.137h-4.691c-.1.106-.2.215-.3.321a13.943,13.943,0,0,1-1.249,1.014l-.2-.249a8.856,8.856,0,0,0,.976-1.393A6.387,6.387,0,0,0,207.962,155.233Zm1.827,9.681a18.391,18.391,0,0,1,2.924.64q1.025.36,1.025.791c0,.363-.2.544-.592.544a1.013,1.013,0,0,1-.506-.222,19.841,19.841,0,0,0-3.051-1.494Z" transform="translate(-138.939 -155.233)" fill="#1a1311"/>
        <path id="路径_891" data-name="路径 891" d="M217.769,156.358c-.52.093-1.121.167-1.805.223q-.591.061-1.654.111v.754h3.421l.432-.4.717.482a.244.244,0,0,1,.124.222c0,.076-.05.134-.147.175l-.248.111v.754c.032.31.048.508.048.591a.214.214,0,0,1-.135.21.62.62,0,0,1-.407.123c-.264,0-.4-.051-.4-.147v-.186h-3.407v.186c0,.7-.024,1.345-.074,1.94.042-.093.078-.182.111-.274a12.847,12.847,0,0,0,.506-1.616l1,.343a.257.257,0,0,1,.183.25c0,.089-.146.16-.442.208-.125.249-.253.474-.381.68h1.207a6.833,6.833,0,0,0,.308-1.333l.9.259c.156.041.234.1.234.187s-.15.176-.444.256c-.189.191-.417.4-.68.631h.878l.542-.593.753.544q.137.1.137.2c0,.14-.05.21-.149.21h-1.73v1.085h.248l.544-.544.679.5a.265.265,0,0,1,.111.185c0,.132-.05.2-.147.2h-1.434v1.195h.347l.544-.542.68.482a.309.309,0,0,1,.111.2c0,.131-.051.2-.15.2h-1.532v1.248h.395l.593-.652.816.566a.345.345,0,0,1,.124.223c0,.132-.049.2-.149.2H215.4v.444a.337.337,0,0,1-.21.307.941.941,0,0,1-.384.087c-.188,0-.287-.082-.295-.246l.049-1.137v-3.4c-.125.139-.272.291-.444.454a10.583,10.583,0,0,1-.248,1.212,8.071,8.071,0,0,1-1.087,2.494l-.2-.21a10.776,10.776,0,0,0,.542-2.111,28.008,28.008,0,0,0,.248-4.31v-2.853a3.837,3.837,0,0,0-.1-.951l.984.617a13.066,13.066,0,0,0,1.361-.319,5.818,5.818,0,0,0,1.653-.743l.927.68c.074.035.111.124.111.274,0,.089-.035.134-.1.134Zm-3.459,2.668h3.407V157.8h-3.407Zm2.075,3.518v-1.085H215.4v1.085Zm0,1.532V162.88H215.4v1.195Zm-.987,1.581h.987v-1.248H215.4Zm5.383-.95.925.6a.3.3,0,0,1,.161.234c0,.126-.2.2-.593.213a8.6,8.6,0,0,1-1.532.726,13.01,13.01,0,0,1-1.48.445l-.149-.234a13.333,13.333,0,0,0,1.445-.875A10.692,10.692,0,0,0,220.781,164.706Zm-1.925-8.791a9.273,9.273,0,0,0,1.629.147h2.37l.693-.79.937.676a.4.4,0,0,1,.147.279.172.172,0,0,1-.2.193h-2.26a12.177,12.177,0,0,1-.988,1.715h1.9l.457-.541.789.556a.321.321,0,0,1,.149.234.263.263,0,0,1-.135.2l-.31.213v5.666a.349.349,0,0,1-.211.322,1.042,1.042,0,0,1-.384.073c-.229,0-.345-.078-.345-.233v-.213h-2.715v.3c0,.113-.079.2-.236.246a1.957,1.957,0,0,1-.457.051.262.262,0,0,1-.3-.3l.049-1.976v-4.3a2.74,2.74,0,0,0-.1-.791l1.036.494h.407l.31-1.715h-.618a9.6,9.6,0,0,0-1.383.1Zm1.53,4.148H223.1V158.5h-2.715Zm0,1.936H223.1v-1.579h-2.715Zm0,2.075H223.1v-1.74h-2.715Zm2.074.73a6.34,6.34,0,0,1,1.679.665,1.019,1.019,0,0,1,.592.815.479.479,0,0,1-.541.544c-.074,0-.161-.074-.26-.219a11.714,11.714,0,0,0-1.617-1.558Z" transform="translate(-136.533 -155.223)" fill="#1a1311"/>
        <path id="路径_892" data-name="路径 892" d="M223.4,155.481l1.087.544h2.372l.542-.544.739.568c.134.092.2.165.2.222a.207.207,0,0,1-.135.2l-.31.151v1.98l.05,1.091a.29.29,0,0,1-.161.249.64.64,0,0,1-.383.1c-.3,0-.447-.084-.447-.249v-.246H224.49v7.064a.293.293,0,0,1-.234.282,1.586,1.586,0,0,1-.457.063.305.305,0,0,1-.345-.345l.049-2.075V156.32A2.962,2.962,0,0,0,223.4,155.481Zm1.087,2.023h2.468v-1.122H224.49Zm0,1.681h2.468v-1.324H224.49Zm1.68,1.69.988.484h3.062l.5-.484.666.532c.114.074.172.14.172.2a.168.168,0,0,1-.124.162l-.271.147v1.639l.062.977a.262.262,0,0,1-.16.235.516.516,0,0,1-.345.11c-.3,0-.447-.079-.447-.234v-.406h-3.11v.295a.278.278,0,0,1-.186.284.78.78,0,0,1-.406.111.262.262,0,0,1-.3-.284v-2.986A1.915,1.915,0,0,0,226.17,160.876Zm.988,3h3.11v-2.162h-3.11Zm2.222-8.348,1.038.5h2.617l.494-.592.827.628a.347.347,0,0,1,.161.259c0,.078-.056.134-.161.177l-.334.186v8.885a1.145,1.145,0,0,1-.654,1.025,2.175,2.175,0,0,1-1.025.31,1,1,0,0,0-.135-.617,4.3,4.3,0,0,0-1.4-.37v-.282l1.73.046c.329,0,.493-.1.493-.307v-5.828h-2.617v.147a.282.282,0,0,1-.21.284,1.062,1.062,0,0,1-.482.11.268.268,0,0,1-.3-.295l.05-1.19V156.32A2.011,2.011,0,0,0,229.381,155.53Zm1.038,1.975h2.617v-1.122h-2.617Zm0,1.681h2.617v-1.324h-2.617Z" transform="translate(-133.956 -155.185)" fill="#1a1311"/>
        <path id="路径_893" data-name="路径 893" d="M233.989,155.392l.965.592h1.642l.505-.592.841.63a.341.341,0,0,1,.147.259c0,.073-.048.131-.147.172l-.348.175v8.642a1.225,1.225,0,0,1-.581,1.038,1.764,1.764,0,0,1-.9.295,1.194,1.194,0,0,0-.113-.617,2.959,2.959,0,0,0-1.171-.358v-.307l1.481.048c.2,0,.3-.094.3-.282v-2.73h-1.7a10.006,10.006,0,0,1-.371,1.927,8.257,8.257,0,0,1-1.184,2.568l-.2-.186a10.854,10.854,0,0,0,.617-2.2,27.133,27.133,0,0,0,.275-4.483v-3.655A7.462,7.462,0,0,0,233.989,155.392Zm.95,6.633H236.6V159.2h-1.58v.789C235.025,160.726,235,161.4,234.938,162.025Zm.087-3.163h1.58v-2.52h-1.58Zm2.964,2.31a9.066,9.066,0,0,0,1.631.147h3.161l.592-.593,1.025.677c.105.068.161.137.161.213,0,.106-.214.241-.643.409a14.186,14.186,0,0,1-1.125,1.837,9,9,0,0,1-.677.731c.264.121.547.243.852.355a13.008,13.008,0,0,0,2.235.619l-.051.3a1.112,1.112,0,0,0-.591.137c-.191.073-.354.295-.494.665a11.531,11.531,0,0,1-1.867-.8,10.416,10.416,0,0,1-.9-.605,7.056,7.056,0,0,1-1.445.755,12.454,12.454,0,0,1-2.507.838l-.146-.249a12.984,12.984,0,0,0,2.765-1.269,9.255,9.255,0,0,0,.766-.568l-.05-.051a6.664,6.664,0,0,1-1.135-1.629,6.764,6.764,0,0,1-.445-1.408c-.29.016-.578.046-.865.087Zm1.236-5.681.914.544h1.74l.505-.592.841.63a.359.359,0,0,1,.149.266q0,.117-.149.175l-.344.188v2.308c0,.133.071.2.222.2h.7a.89.89,0,0,0,.308-.037,5.556,5.556,0,0,0,.655-1.642l.282.048-.147,1.335a.448.448,0,0,0,.259.395.354.354,0,0,1,.136.295.384.384,0,0,1-.3.37,3.338,3.338,0,0,1-.913.123h-1.225a1.11,1.11,0,0,1-.764-.232,1.3,1.3,0,0,1-.21-.853v-2.617h-1.68v.593a4.16,4.16,0,0,1-.5,2.2,4.632,4.632,0,0,1-1.431,1.507l-.3-.233a3.379,3.379,0,0,0,.965-1.233,5.833,5.833,0,0,0,.369-2.236A7.567,7.567,0,0,0,239.225,155.491Zm.209,6.186a5.379,5.379,0,0,0,.48.987,6.551,6.551,0,0,0,1.236,1.31,2.278,2.278,0,0,0,.234.187,4.391,4.391,0,0,0,.605-.842,12.29,12.29,0,0,0,.877-1.642h-3.432Z" transform="translate(-131.635 -155.195)" fill="#1a1311"/>
        <path id="路径_894" data-name="路径 894" d="M245.912,155.311l1.247.433a.317.317,0,0,1,.236.31c0,.116-.182.2-.544.246a24.414,24.414,0,0,1-1.088,2.322l.385.162c.139.056.208.116.208.184s-.062.145-.183.186l-.21.109v7.262a.366.366,0,0,1-.261.37,1.224,1.224,0,0,1-.431.073.315.315,0,0,1-.348-.347q0-.366.051-1.332v-5.395a16.5,16.5,0,0,1-1.186,1.444l-.3-.147a17.194,17.194,0,0,0,1.372-2.668A25.262,25.262,0,0,0,245.912,155.311Zm1.68,5.149a9.791,9.791,0,0,0,1.631.135h3.505l.545-.541.926.728a.274.274,0,0,1,.11.222c0,.058-.165.152-.494.286a11.834,11.834,0,0,1-.222,2.111,9.731,9.731,0,0,1-.53,2.307,1.423,1.423,0,0,1-.545.817,3.085,3.085,0,0,1-1.222.295c-.067-.459-.211-.723-.432-.787l-1.149-.284.05-.312,1.679.15a.725.725,0,0,0,.469-.15.841.841,0,0,0,.31-.48,9.791,9.791,0,0,0,.443-1.95c.1-.742.165-1.426.2-2.05h-2.47a9.809,9.809,0,0,1-.42,2.1,6.57,6.57,0,0,1-.629,1.532,4.984,4.984,0,0,1-1.012,1.185,6.137,6.137,0,0,1-1.828,1.1l-.1-.249a7.951,7.951,0,0,0,1.3-1.061,5.226,5.226,0,0,0,.826-1.233,6.6,6.6,0,0,0,.53-1.519,9.257,9.257,0,0,0,.3-1.852h-.135a10.81,10.81,0,0,0-1.384.087Zm.988-4.2,1.247.431a.307.307,0,0,1,.234.3q0,.171-.545.259a14.491,14.491,0,0,1-1.333,2.187,11.85,11.85,0,0,1-1.431,1.518l-.3-.162a12.023,12.023,0,0,0,1.21-2.06A16.274,16.274,0,0,0,248.58,156.264Zm1.58-.457a9.077,9.077,0,0,0,1.631.147h.061l.532-.493.766.556c.114.094.172.178.172.259s-.215.2-.643.381a5.094,5.094,0,0,0,.457,1.012,5.443,5.443,0,0,0,.74.841,9.6,9.6,0,0,0,1.616,1.111l-.146.261a1.282,1.282,0,0,0-.568.072c-.123.027-.3.182-.519.472a13.37,13.37,0,0,1-1.013-1.2,6.234,6.234,0,0,1-.667-1.225,7.217,7.217,0,0,1-.443-1.69h-.345a9.967,9.967,0,0,0-1.383.1Z" transform="translate(-129.172 -155.214)" fill="#1a1311"/>
        <path id="路径_895" data-name="路径 895" d="M253.845,156.96a9.065,9.065,0,0,0,1.629.15h2.137c.271-.576.532-1.2.776-1.877l1.2.248c.188.041.282.125.282.259q0,.173-.542.282c-.163.37-.348.733-.544,1.088h4.792l.789-.878,1.026.743a.418.418,0,0,1,.16.3c0,.125-.083.191-.246.191h-6.7a15.815,15.815,0,0,1-1.149,1.73l.149.084h5.185l.494-.591.827.641a.308.308,0,0,1,.16.246c0,.076-.052.134-.16.175l-.334.186v5.627a1.147,1.147,0,0,1-.666,1.025,2.107,2.107,0,0,1-1,.31.887.887,0,0,0-.147-.607,3.53,3.53,0,0,0-1.394-.383v-.3l1.727.066c.328,0,.494-.1.494-.31v-1.633H257.6v2.719a.367.367,0,0,1-.26.37,1.236,1.236,0,0,1-.432.074c-.214,0-.328-.115-.348-.345,0-.246.02-.687.051-1.321v-5.052a14.39,14.39,0,0,1-2.617,2.075l-.2-.282a11.6,11.6,0,0,0,2.594-2.694,13.6,13.6,0,0,0,1.061-1.814h-1.976a9.606,9.606,0,0,0-1.383.1Zm3.754,4.249h5.185v-1.57H257.6Zm0,2.172h5.185v-1.814H257.6Z" transform="translate(-126.719 -155.233)" fill="#1a1311"/>
        <path id="路径_896" data-name="路径 896" d="M265.495,156.293v10.384c0,.109-.08.186-.235.234a1.9,1.9,0,0,1-.457.051c-.2,0-.3-.094-.3-.285l.051-1.988v-8.432a2.777,2.777,0,0,0-.1-.815l1.038.493h1.679l.494-.544.864.645a.342.342,0,0,1,.173.256c0,.092-.057.152-.173.186l-.37.111q-.555,1.233-1.53,2.963a3.914,3.914,0,0,1,1.3,1.345,3.218,3.218,0,0,1,.43,1.52,1.864,1.864,0,0,1-.591,1.444,1.639,1.639,0,0,1-1.036.385q-.063-.631-.344-.682l-.744-.208.05-.336.987.087a.619.619,0,0,0,.521-.233,1.349,1.349,0,0,0,.222-.841,3.1,3.1,0,0,0-.3-1.284,3.393,3.393,0,0,0-.889-1.149,27.617,27.617,0,0,0,.914-3.308Zm4.494,4.249v4.234c.775-.165,1.535-.344,2.284-.53l.037.244A29.812,29.812,0,0,1,269,165.974l-.125.432a.154.154,0,0,1-.172.16c-.106,0-.182-.076-.222-.223l-.471-1.2c.344-.066.692-.131,1.038-.2V156.43a2.9,2.9,0,0,0-.1-.779l1.036.493h3.692l.505-.6.839.643a.313.313,0,0,1,.15.248c0,.05-.05.105-.15.173l-.345.175v3.813a.391.391,0,0,1-.208.358.892.892,0,0,1-.384.084c-.265,0-.394-.079-.394-.244v-.246h-1.9a12.107,12.107,0,0,0,.925,2.048c.072.116.144.228.211.334a7.916,7.916,0,0,0,1.456-1.543l.9.691a.351.351,0,0,1,.186.295c0,.165-.066.248-.2.248l-.494-.085q-.592.308-1.616.74a7.7,7.7,0,0,0,.988,1.088,6.93,6.93,0,0,0,1.716,1.122l-.1.345a1.571,1.571,0,0,0-.483.061c-.156.027-.358.22-.607.583a5.551,5.551,0,0,1-1.322-1.372,9.06,9.06,0,0,1-1.17-2.089,16.03,16.03,0,0,1-.692-2.466Zm0-4.064v1.628h3.706v-1.628Zm0,1.988v1.717h3.706v-1.717Z" transform="translate(-124.18 -155.195)" fill="#1a1311"/>
        <path id="路径_897" data-name="路径 897" d="M277.5,156.166l1.236.421c.163.073.245.16.245.259,0,.116-.217.218-.641.307a17.741,17.741,0,0,1-1.643,2.52,11.954,11.954,0,0,1-2.161,2.111l-.3-.2A16.591,16.591,0,0,0,276,159.3,16.8,16.8,0,0,0,277.5,156.166Zm1.332,3.545,1.274.347c.171.038.256.125.256.259s-.18.251-.542.331a27.264,27.264,0,0,1-1.642,3.064q-.433.656-.94,1.358c.246-.009.5-.021.753-.038q1.6-.072,3.125-.172c.815-.05,1.537-.1,2.163-.158a21.79,21.79,0,0,0-1.58-2.214l.244-.208a18.814,18.814,0,0,1,2.31,1.976,2.481,2.481,0,0,1,.8,1.679c0,.4-.18.592-.542.592-.2,0-.4-.2-.567-.6-.147-.295-.3-.583-.469-.863q-.828.171-1.815.318c-.888.167-2.045.334-3.469.509q-1.248.149-2.324.259l-.146.333c-.058.172-.142.259-.246.259-.084-.016-.144-.1-.186-.246l-.359-1.335c.545-.017,1.173-.036,1.891-.063a13.36,13.36,0,0,0,1-2.111A25.569,25.569,0,0,0,278.834,159.711Zm.593-3.852a9.375,9.375,0,0,0,1.643.147h.383l.544-.5.765.558c.115.094.173.177.173.241,0,.085-.215.223-.643.411a8.076,8.076,0,0,0,.63,1.494,7.031,7.031,0,0,0,1.025,1.21,12.951,12.951,0,0,0,2.2,1.629L286,161.3c-.313,0-.5.027-.556.085q-.21.035-.531.457a16.345,16.345,0,0,1-1.506-1.593,8.251,8.251,0,0,1-.988-1.618,9.841,9.841,0,0,1-.665-2.271h-.681a9.717,9.717,0,0,0-1.4.1Z" transform="translate(-121.849 -155.167)" fill="#1a1311"/>
        <path id="路径_898" data-name="路径 898" d="M284.915,155.965a8.265,8.265,0,0,0,1.616.16h7.9l.544-.652.863.678a.311.311,0,0,1,.175.26c0,.082-.054.147-.16.2l-.336.2v8.853a1.207,1.207,0,0,1-.739,1.062,2.629,2.629,0,0,1-1.138.307.974.974,0,0,0-.147-.641,5.125,5.125,0,0,0-1.581-.394v-.284l1.976.035c.4,0,.594-.1.594-.3V156.46h-7.954a9.81,9.81,0,0,0-1.382.1Zm.728,2.172a8.245,8.245,0,0,0,1.629.162h4.05l.74-.852.976.716a.4.4,0,0,1,.16.274.175.175,0,0,1-.2.2h-5.73a8.379,8.379,0,0,0-1.383.111Zm.69,1.632,1.038.494h3.605l.546-.542.727.566c.141.093.21.167.21.223a.2.2,0,0,1-.136.2l-.308.16v2.123l.048,1.088a.251.251,0,0,1-.16.222.6.6,0,0,1-.381.111c-.3,0-.447-.082-.447-.246v-.581h-3.7v.776a.276.276,0,0,1-.209.284,1.03,1.03,0,0,1-.482.114.268.268,0,0,1-.3-.3l.049-1.186v-2.716A1.969,1.969,0,0,0,286.333,159.768Zm1.038,3.458h3.7v-2.6h-3.7Z" transform="translate(-119.308 -155.176)" fill="#1a1311"/>
      </g>
    </g>
  </g>
</svg>
