<svg xmlns="http://www.w3.org/2000/svg" width="153.961" height="40.566" viewBox="0 0 153.961 40.566">
  <g id="组_3023" data-name="组 3023" transform="translate(-455.554 -791.986)">
    <g id="组_3020" data-name="组 3020" transform="translate(455.554 811.061)">
      <g id="组_3019" data-name="组 3019" transform="translate(110.304)">
        <path id="路径_1047" data-name="路径 1047" d="M552.34,823.732c.584,0,.7-.383.787-2.9a9.842,9.842,0,0,0,2.97,1.283c-.314,3.69-1.17,4.7-3.442,4.7h-2.3c-2.836,0-3.489-1.013-3.489-3.937v-4.86h-2.7c-.473,3.8-1.644,7.177-6.841,9.248a10.359,10.359,0,0,0-2.048-2.9c4.343-1.417,5.086-3.78,5.423-6.345h-5.041v-3.15h8.483v-3.174h-3.442a14.585,14.585,0,0,1-1.621,2.9,17.457,17.457,0,0,0-2.925-1.439,18.49,18.49,0,0,0,2.925-7.179l3.331.652c-.18.631-.36,1.284-.563,1.935h2.3v-2.791h3.331v2.791h6.592v3.128H547.48v3.174h8.46v3.15H550.18v4.838c0,.787.089.877.7.877Z" transform="translate(-535.283 -805.774)" fill="#14283e"/>
        <path id="路径_1048" data-name="路径 1048" d="M556.96,819.006c-.18-.518-.473-1.237-.787-1.958v10.1h-2.767v-7.673a15.972,15.972,0,0,1-1.24,3.06A20.325,20.325,0,0,0,551,819.3a20.822,20.822,0,0,0,2.273-6.392h-1.644v-3.015h1.779v-4.119h2.767v4.119h1.372v3.015h-1.372v.7c.473.653,1.846,2.745,2.138,3.262Zm14.56,1.462a13.108,13.108,0,0,1-2.273,3.129,1.754,1.754,0,0,0,.855.4c.405.046.629-.742.787-2.3a8.592,8.592,0,0,0,2.026,1.71c-.652,3.038-1.71,3.781-2.723,3.713a4.532,4.532,0,0,1-3.15-1.71,15.814,15.814,0,0,1-3.376,1.71A12.855,12.855,0,0,0,562,825.038a13.055,13.055,0,0,0,3.712-1.869,18.2,18.2,0,0,1-1.057-3.33h-2.723l-.046.315c.856.7,2.093,1.666,2.7,2.273l-1.935,1.934a19.245,19.245,0,0,0-1.372-1.372,9.2,9.2,0,0,1-2.925,4.141,11.477,11.477,0,0,0-2.183-1.846,7.234,7.234,0,0,0,3.015-5.445h-1.125v-2.453h6.121c-.336-2.182-.585-4.68-.742-7.447a24.948,24.948,0,0,1-1.981,3.24l1.756-.451a28.858,28.858,0,0,1,.743,3.2l-1.981.585c-.022-.2-.044-.427-.09-.675a11.423,11.423,0,0,0-3.262.7,20.914,20.914,0,0,0-.743-2.16,2.36,2.36,0,0,0,1.125-1.035,15.568,15.568,0,0,0,.879-1.4,4.691,4.691,0,0,0-1.508.337c-.136-.473-.5-1.552-.743-2.138a1.479,1.479,0,0,0,.789-.787,15.675,15.675,0,0,0,1.282-3.488l2.317.584A20.109,20.109,0,0,1,560.268,810l.631-.022c.18-.427.36-.877.518-1.3l2,.652q-.066-1.619-.134-3.374h2.677c.046,2.97.2,5.715.45,8.145a2.572,2.572,0,0,0,1.1-1.035,14.989,14.989,0,0,0,.878-1.395,4.72,4.72,0,0,0-1.53.338,20.784,20.784,0,0,0-.765-2.138,1.426,1.426,0,0,0,.787-.765,13.955,13.955,0,0,0,1.215-3.331l2.319.585a21.77,21.77,0,0,1-1.666,3.4l.631-.046c.18-.427.36-.877.517-1.306l2.318.743A26.485,26.485,0,0,1,569.9,813l1.732-.473a33.334,33.334,0,0,1,.969,3.218l-1.913.629a8.26,8.26,0,0,0-.18-.855l-.855.136c.5.427,1.079.9,1.417,1.237l-.562.5h1.756v2.453h-2.409Zm-10.127-7.178c-.2.27-.405.54-.606.787l.764-.09Zm7.225,2.543a4.974,4.974,0,0,0-1.508.428c-.113-.428-.427-1.44-.675-2.047.134,1.147.27,2.205.45,3.172h1.484c-.27-.248-.539-.5-.764-.7Zm-1.216,4.005c.136.473.27.9.405,1.3a7.958,7.958,0,0,0,.833-1.3Zm2.453-6.773c-.18.248-.36.5-.54.721l.742-.068Z" transform="translate(-529.257 -805.774)" fill="#14283e"/>
      </g>
      <path id="路径_1049" data-name="路径 1049" d="M558.5,818.638a6.635,6.635,0,0,0,3.51-5.8,6.806,6.806,0,0,0-6.931-6.674h-7.959V826.2h4.336v-6.695h2.864l4.141,6.695h4.719Zm-3.113-3.153H551.46v-5.3h3.932a2.673,2.673,0,0,1,0,5.3M530.252,826.2h13.4v-4.022H534.59v-3.989h8.431v-4.02H534.59v-3.989h9.065V806.16h-13.4Zm-17.169-16.019h5.3V826.2h4.337V810.182h5.3V806.16H513.083Zm-6.8,16.019h4.337v-20.04h-4.337Zm-9.769-20.041h-7.959V826.2h4.337v-6.695h3.622a6.678,6.678,0,1,0,0-13.346m.31,9.325H492.89v-5.3h3.932a2.673,2.673,0,0,1,0,5.3M480.5,817.967a4.007,4.007,0,1,1-8,0V806.153h-4.348V818.17a8.35,8.35,0,1,0,16.7,0V806.153H480.5Zm-20.1,2.516a2.009,2.009,0,0,1-3.066,1.778l-1.774,3.633c3.722,1.708,9.265.076,9.265-5.693V806.153h-4.426Z" transform="translate(-455.554 -805.629)" fill="#14283e"/>
    </g>
    <path id="路径_1050" data-name="路径 1050" d="M492.2,800.272a5.074,5.074,0,0,0-1.164-.574,41.254,41.254,0,0,0-4.131-1.016,31.4,31.4,0,0,0,3.291,1.208c4.568,1.318,2.415.569,2,.382m-7.505,2.44a2.11,2.11,0,0,0-1.227-.273c-.144-.014-.458-.082-.5-.069-.158.046.491.292.578.315a11.967,11.967,0,0,0,2.121.63c.259.047,1.6.556,1.869.544.295-.014-1.022-.422-1.2-.578-.321-.291-1.2-.32-1.641-.569m1.851,1.713c.094.053.158.133.249.19a8.312,8.312,0,0,0,1.154.306,13.568,13.568,0,0,0,3.012.766c.231.028.4.078.432.068.3-.087-6.277-2.1-6.282-2.1-.119.065.975.459,1.436.766m11.654,4.033a6.9,6.9,0,0,1-.739-.386c-.466-.208-.941-.032-1.881-.311-.007,0-3.679-1.217-3.08-.841.214.137-.169-.108,2.479.9.38.145-.152.115.232.242,1.126.369,1.579.144,1.949.349.8.433,1.482.2,1.039.043m-18.806,0c1,0,.971,0,1.032,0a3.069,3.069,0,0,0-1.252-.635q.1.324.22.636m2.494-1.765c.17-.292,4.164,1.532,4.665,1.288a11.5,11.5,0,0,0-1.938-.646c-3.165-1.122-4.861-1.76-5.964-2.164a12,12,0,0,0,.268,1.725,9.273,9.273,0,0,1,2.742.811c.468.228.624.116,1.684.524.732.284.473.448,3.647.448,1.2,0-.566-.152-2.41-.939a28.267,28.267,0,0,1-2.694-1.047M490.213,792a13.97,13.97,0,0,1,1.352.475,5.774,5.774,0,0,1,1.522.358c.809.38,1.718.567,2.539.932.917.41,1.952,1.234,1.774,1.3-.021,0-1.619-.343-2.482-.6-2.947-.879-2.831-1.1-4.687-1.659-1.018-.309-1.519-.392-1.5-.293-.029.271,2.084.7,3.583,1.615a19.258,19.258,0,0,0,4.257,1.357c1.58.257,1.613.469,1.094.487-1.7.061-3.156-.712-4.723-.962-.51-.083-1.079-.2-1.132-.075-.007.089.649.22.8.277,4.1,1.533,3.637,1.829,5.531,2.692,1.345.614,1.628,1.165,1.4,1.057-2.756-1.3-3.406-.826-5.285-2.108-2.4-1.631-2.041-1.162-3.986-1.637a30.528,30.528,0,0,0-3.839-1.093c-1.242-.138.3-.492,2.828-.053,1.035.173,1.013.129,1.28.194a2.672,2.672,0,0,0,.537.114c.2-.018-.1-.2-.138-.219-.155-.08-.328-.12-.487-.188-2.811-1.171-3.308-.69-3.214-1,.047-.156,1.1-.061,1.3-.14.162-.06-.3-.215-.371-.257-.13-.057-.14-.173-.275-.245a12.1,12.1,0,0,0-3.665,1.568c2.09.7,8.838,2.333,8.951,2.85a92.492,92.492,0,0,1-9.28-2.631q-.394.27-.764.57c1.944.92,17.706,5.165,16.842,5.216-2.078.133-6.407-1.768-10.39-2.47-2.1-.371-2.374-.573,5.646,1.912,2.431.757,5.617,2.072,5.444,2.285-.087.115-5.459-1.865-12.886-3.8-1-.261-1.973-.676-2.97-.977a5.9,5.9,0,0,1-2.63-1.323,12.465,12.465,0,0,0-.945,1.058,4.679,4.679,0,0,0,1.09.044c.528.09.255.347,1.522.331s15.372,4.763,16.221,5.364a5.76,5.76,0,0,1,.968.855c.208.342-.321-.078-7.364-2.11-1-.292-2.035-.461-3.042-.736-.985-.27-1.937-.652-2.922-.924-.522-.142-1.071-.188-1.583-.353-.4-.13-.764-.336-1.169-.448-4.077-1.132-3.911-1.1-3.913-1.045-.025.439,3.94,1.312,11.494,3.682.783.245,1.54.581,2.3.83,2.6.855-2.355.006-4.109-.5-.008,0-1.725-.52-3.565-.93-1.628-.364-1.447.166-4.214-.862a3.968,3.968,0,0,0-2.554-.206c-.091.023-.216.047-.057.129.131.065.3.036.768.014a2.181,2.181,0,0,1,1.559.476,7.724,7.724,0,0,0,2.88.805c2.11.472,2.832,1.314,7.493,2.851a48.626,48.626,0,0,1,5.876,2.183c-1.562.237-3.206-.946-5.64-1.392a1.292,1.292,0,0,1-.54-.3,2.634,2.634,0,0,0-.823-.293c-1.761-.386-1.538-.191-1.475-.177,2.232.452,1.862.541,2.326.832s.74.1,2.381.862c.174.078.154.19-.066.191-.087,0-1.049-.115-1.06-.116a5.772,5.772,0,0,1-2.171-.566,18.277,18.277,0,0,0-3.11-1.219c-.077.107.458.2,1.067.513.343.178.671.387,1.011.573.282.154.6.275.87.448,2.764,1.75,2.273.429,3.933,1.585.549.382,1.385.407,2.45.956,1.27.657-.1.523,4.072.523A12.169,12.169,0,0,0,490.213,792m4.359,16.055c-.876-.3-1.157-.451-2.309-.811-.007,0-12.119-3.318-13.607-4.131-.007,0-.044.557-.044,1.033,0,.43,15.783,5.407,15.376,5.48-.437.079-.981-.183-1.5.037.885.851,1.505-.2,2.681.593.2.138.967.057.578-.113a20.09,20.09,0,0,0-4.6-1.944c-1.359-.482-1.695-.6-1.213-.511,5.7,1.2,4.815,1.674,6.512,1.609.383-.015,1.092-.2.8-.352s-1.894-.628-2.672-.892" transform="translate(8.843)" fill="#ea7903"/>
  </g>
</svg>
